<svg width="358" height="838" viewBox="0 0 358 838" fill="none" xmlns="http://www.w3.org/2000/svg">
<path d="M101.458 761.597C100.672 762.641 98.6938 765.158 99.103 766.657C99.6111 768.501 102.019 768.026 103.407 767.934C106.391 767.733 109.275 767.263 112.234 766.995C115.193 766.727 118.223 766.279 121.244 766.094C123.984 765.893 127.599 764.843 129.705 766.991C130.664 768.017 131.53 769.125 132.293 770.304C130.644 773.003 128.813 776.566 131.242 779.128C134.14 782.203 138.001 781.076 141.544 780.038C149.283 786.788 158.27 791.957 167.996 795.254L168.569 795.437C167.187 796.205 166.132 797.449 165.599 798.938C165.421 800.259 166.523 800.748 167.185 801.617C167.847 802.485 168.006 804.093 169.053 804.802C170.619 805.837 173.179 805.075 175.283 804.24C175.72 805.678 176.571 806.956 177.731 807.912C178.925 808.688 179.996 808.118 181.119 807.483C182.677 806.566 184.068 805.392 185.234 804.012C185.948 803.224 186.714 802.493 187.438 801.732C187.67 801.492 187.956 801.033 188.278 800.667C192.847 801.572 197.473 802.158 202.124 802.42C207.518 802.822 212.941 802.591 218.281 801.731C220.587 801.273 222.85 800.619 225.045 799.775C227.02 799.202 228.908 798.36 230.655 797.274C231.774 796.425 231.818 795.644 231.365 794.437C230.56 792.291 229.616 790.182 228.709 788.089C226.6 782.906 224.166 777.86 221.422 772.983C218.651 768.338 215.19 764.143 211.156 760.54C210.15 758.959 209.09 757.398 207.878 755.879C205.309 752.497 202.363 749.334 199.614 746.081C197.229 743.224 194.608 740.573 191.777 738.158C190.841 737.376 189.604 735.913 188.261 736.003C186.918 736.094 187.03 736.801 186.261 737.442C184.854 738.627 181.945 736.337 180.57 735.69C179.117 734.919 177.558 734.364 175.944 734.044C174.624 733.815 173.266 733.989 172.046 734.542C171.147 735.075 170.139 735.396 169.098 735.482C168.057 735.568 167.009 735.415 166.036 735.037C163.438 734.19 161.373 733.007 159.193 735.109C158.521 735.85 157.677 736.412 156.734 736.747C155.792 737.082 154.782 737.178 153.793 737.027C152.606 736.897 151.406 737.108 150.334 737.636C148.941 738.449 148.155 739.983 146.671 740.678C145.642 740.966 144.648 741.365 143.705 741.866C143.38 742.134 143.134 742.486 142.994 742.883C142.855 743.281 142.827 743.709 142.914 744.121C141.338 744.529 139.763 744.982 138.209 745.488L134.06 746.662C127.953 748.371 123.737 742.593 120.009 738.774C118.279 736.975 116.581 735.179 115.035 733.22C113.665 731.484 112.895 729.432 111.534 727.678C111.376 727.501 111.164 727.379 110.931 727.331C110.698 727.284 110.456 727.312 110.241 727.414C107.179 728.715 109.933 737.81 110.417 740.122C111.159 743.241 112.151 746.296 112.857 749.443C113.671 753.039 109.462 754.586 107.056 756.453C104.977 757.92 103.096 759.649 101.458 761.597ZM156.652 741.509C154.581 741.781 152.517 742.111 150.432 742.465C148.72 742.755 147.01 743.09 145.328 743.461C145.328 743.394 145.34 743.328 145.362 743.265C145.91 743.283 146.458 743.217 146.986 743.068C148.313 742.487 149.498 741.625 150.46 740.542C151.006 739.978 151.7 739.58 152.462 739.393C153.898 739.996 155.285 740.708 156.612 741.524L156.652 741.509ZM159.284 738.043C161.234 738.837 163.089 739.844 164.817 741.047C162.486 740.992 160.154 741.099 157.839 741.37C156.868 740.564 155.855 739.81 154.804 739.111C156.357 739.23 157.909 738.862 159.244 738.058L159.284 738.043ZM166.741 737.082C170.02 738.825 173.208 740.735 176.292 742.802C173.181 742.019 170.014 741.472 166.82 741.168L165.975 741.118C164.629 739.929 163.198 738.84 161.693 737.859C161.216 737.54 160.716 737.257 160.198 737.012C160.341 736.78 160.522 736.572 160.732 736.398C162.305 735.166 163.992 736.278 165.45 736.74C165.828 736.889 166.267 737 166.755 737.077L166.741 737.082ZM182.391 742.626C183.867 743.786 185.312 744.988 186.789 746.194C183.883 745.036 180.915 744.039 177.898 743.21C175.652 740.885 173.094 738.884 170.298 737.263C171.505 737.055 172.533 736.654 173.656 736.509C173.663 736.601 173.696 736.689 173.751 736.763C176.635 738.742 179.586 740.45 182.351 742.641L182.391 742.626ZM192.964 746.586C194.956 748.348 196.891 750.162 198.896 751.919L198.433 751.664C195.28 749.986 192.02 748.393 188.659 746.977C186.685 745.101 184.742 743.183 182.614 741.426C180.903 739.826 179.066 738.366 177.121 737.06C178.638 737.655 180.121 738.329 181.566 739.08C182.663 739.707 183.839 740.182 185.064 740.492C187.686 742.507 190.421 744.373 192.924 746.601L192.964 746.586ZM206.964 757.032C204.975 755.559 202.902 754.201 200.757 752.965C198.071 750.209 195.559 747.265 192.667 744.693C191.091 743.306 189.435 742.011 187.709 740.815C187.463 740.648 187.22 740.448 186.977 740.249L187.312 740.123C187.776 739.811 188.169 738.654 188.541 738.545C188.913 738.436 190.278 739.913 190.474 740.069C191.596 740.979 192.59 741.999 193.646 742.98C195.3 744.532 196.889 746.078 198.415 747.739C201.196 750.75 204.193 753.681 206.785 756.84C206.835 756.906 206.882 756.976 206.924 757.048L206.964 757.032ZM176.913 803.568L177.583 803.316C179.474 802.607 181.382 801.983 183.243 801.194C184.019 800.855 184.774 800.47 185.503 800.04L186.865 800.325C185.691 801.169 184.599 802.122 183.602 803.17C182.625 804.072 181.044 805.813 179.632 806.006C178.22 806.198 177.649 804.592 176.872 803.583L176.913 803.568ZM168.559 797.98C169.259 797.278 170.09 796.722 171.006 796.344L171.18 796.278C175.33 797.552 179.53 798.716 183.763 799.683C180.45 800.803 177.174 802.062 173.797 802.931C172.294 803.327 170.674 803.781 169.614 802.343C169.214 801.804 168.897 801.082 168.526 800.502C167.773 799.392 167.597 799.045 168.504 797.955L168.559 797.98ZM132.478 774.794C132.81 773.966 133.241 773.116 133.677 772.279C134.016 772.748 134.379 773.199 134.765 773.63C136.529 775.527 138.39 777.332 140.341 779.035L139.409 779.201C137.785 779.592 136.087 779.56 134.478 779.108C134.019 779.019 133.588 778.823 133.219 778.537C132.849 778.25 132.553 777.881 132.353 777.458C132.153 777.036 132.055 776.572 132.067 776.105C132.079 775.638 132.201 775.18 132.423 774.769L132.478 774.794ZM102.304 765.441C102.79 764.739 103.172 763.677 103.598 763.059C104.078 762.407 104.612 761.798 105.194 761.236C106.741 761.528 108.611 761.209 110.108 761.367C112.779 761.635 115.455 761.06 118.089 761.433C118.59 761.506 118.754 760.679 118.27 760.57C115.755 759.983 113.158 760.116 110.616 759.784C109.491 759.64 108.401 759.467 107.293 759.409L109.112 757.977C109.605 757.578 110.145 757.222 110.685 756.867C110.837 756.938 111.01 756.949 111.171 756.898C111.238 756.873 112.618 757.167 112.809 757.187C113.751 757.292 114.645 757.554 115.565 757.683C116.984 757.916 119.628 757.46 120.827 758.372C121.117 758.615 121.524 758.11 121.257 757.889C120.154 756.865 118.057 756.902 116.657 756.555C115.316 756.138 113.943 755.834 112.552 755.646C113.207 755.215 113.823 754.728 114.393 754.191C114.685 753.917 114.939 753.606 115.148 753.265C115.709 753.376 116.283 753.436 116.796 753.58C118.814 754.065 120.762 754.804 122.594 755.781C122.646 755.811 122.708 755.821 122.767 755.808C122.826 755.794 122.878 755.76 122.913 755.711C122.948 755.661 122.963 755.601 122.956 755.541C122.949 755.48 122.919 755.425 122.874 755.386C121.266 754.055 119.433 753.022 117.461 752.336C116.888 752.09 116.299 751.881 115.697 751.713C115.747 751.21 115.727 750.702 115.637 750.205C115.456 749.11 115.203 748.027 114.95 746.944C115.667 747.471 116.445 747.913 117.154 748.458C118.799 749.61 120.348 750.891 121.789 752.289C121.861 752.374 121.964 752.426 122.075 752.435C122.185 752.443 122.295 752.407 122.38 752.335C122.464 752.263 122.516 752.16 122.525 752.049C122.534 751.938 122.498 751.829 122.426 751.744C121.126 750.247 119.682 748.883 118.113 747.67C117.255 746.852 116.326 746.109 115.339 745.452C115.112 745.338 114.631 745.075 114.468 745.09C114.229 744.247 113.997 743.385 113.757 742.542C113.518 741.698 113.186 740.446 112.947 739.403C113.129 739.519 113.323 739.629 113.533 739.78C114.594 740.699 115.583 741.699 116.49 742.771C118.108 744.515 119.926 746.062 121.906 747.38C122.045 747.465 122.214 747.264 122.102 747.169C118.985 744.283 116.871 739.829 112.957 737.839C112.846 737.784 112.721 737.762 112.597 737.775C112.476 737.208 112.364 736.623 112.257 736.051C112.149 735.48 111.596 732.78 111.348 730.976C112.201 732.456 113.149 733.879 114.185 735.237C115.972 737.351 117.925 739.295 119.734 741.386C122.759 744.842 126.002 748.674 130.95 749.343C133.478 749.68 136.092 748.409 138.424 747.611C141.043 746.72 143.668 746.011 146.359 745.354C146.869 745.163 147.429 745.106 147.987 745.003L151.511 744.446C153.958 744.156 156.875 744.592 159.234 744.029C160.817 743.524 162.49 743.367 164.14 743.566C165.846 743.752 167.597 743.646 169.342 743.894C175.324 744.906 181.163 746.63 186.736 749.029C192.628 751.278 198.267 754.142 203.557 757.576C212.167 763.358 218.074 771.439 222.702 780.597C224.952 785.046 226.853 789.749 228.71 794.454C228.732 794.532 228.761 794.608 228.795 794.682C227.766 794.361 226.683 794.247 225.609 794.346C223.192 794.459 220.77 794.443 218.355 794.298C213.46 794.01 208.596 793.321 203.813 792.24C202.849 792.035 202.313 793.46 203.302 793.732C205.376 794.285 207.378 794.972 209.479 795.393C212.057 795.809 214.659 796.07 217.268 796.174C220.757 796.59 224.288 796.453 227.734 795.768L226.22 796.504C224.183 797.401 222.075 798.125 219.918 798.669C211.96 800.705 203.118 800.38 194.797 799.079C194.695 798.086 194.496 797.105 194.203 796.15C193.891 794.472 193.734 792.77 193.734 791.063C193.655 787.81 194.061 784.564 194.94 781.431C195.898 778.29 197.584 775.419 199.861 773.053C201.782 771.2 204.029 770.541 206.334 769.386C206.37 769.36 206.396 769.323 206.409 769.281C206.421 769.239 206.42 769.194 206.404 769.153C206.389 769.112 206.36 769.077 206.323 769.053C206.286 769.03 206.242 769.02 206.198 769.024C203.56 769.361 201.059 770.394 198.952 772.017C196.605 774.184 194.737 776.818 193.468 779.749L193.255 780.242C189.255 775.751 185.024 771.471 180.581 767.417C178.167 765.262 175.701 763.051 173.206 760.927C171.244 759.245 168.934 756.838 166.336 756.236C166.173 756.206 166.004 756.219 165.847 756.275C165.69 756.331 165.55 756.428 165.443 756.555C165.335 756.683 165.263 756.836 165.234 757C165.205 757.165 165.22 757.333 165.277 757.49C165.78 758.831 166.248 760.079 166.731 761.366C167.214 762.654 167.339 763.601 165.809 764.619C165.482 764.849 164.992 764.849 164.653 765.129C164.247 765.457 163.965 765.913 163.854 766.423C163.477 767.987 164.536 769.059 163.916 770.668C163.093 772.798 161.638 773.527 162.66 775.928C163.524 777.945 164.263 778.937 163.521 781.281C163.162 782.045 163.019 782.892 163.108 783.731C163.47 785.308 165.186 786.088 166.532 786.7C169.522 787.865 172.648 788.646 175.834 789.025C178.88 789.631 181.967 790.007 185.069 790.151C186.606 790.171 188.073 790.004 189.596 789.984C190.144 789.977 190.68 790.02 191.21 790.005C191.187 792.884 191.499 795.755 192.139 798.561L188.724 798.021C178.532 796.015 167.875 793.341 158.681 788.405C149.87 783.678 141.139 777.573 134.912 769.658C133.395 767.734 132.246 765.365 130.343 763.799C128.926 762.632 127.746 762.952 125.987 763.076C121.204 763.417 116.462 764.032 111.688 764.477C108.923 764.733 106.17 765.184 103.398 765.382C103.268 765.401 102.691 765.372 102.238 765.389L102.304 765.441ZM179.849 784.842C181.591 785.937 183.514 786.714 185.528 787.133C187.42 787.633 189.386 787.792 191.334 787.603L191.242 788.418C190.379 788.481 189.425 788.304 188.586 788.312C187.064 788.332 185.647 788.389 184.175 788.299C181.228 788.066 178.295 787.68 175.388 787.142C172.524 786.686 168.762 786.445 166.388 784.52C164.351 782.882 166.368 780.061 165.698 777.787C165.351 776.862 164.662 776.003 164.441 775.046C164.08 773.513 165.095 773.118 165.653 771.914C165.956 771.194 166.057 770.405 165.945 769.632C165.904 769.158 165.686 768.658 165.67 768.205C165.599 766.916 166.213 766.594 166.986 766.044C168.191 765.179 168.936 765.083 168.884 763.313C168.749 761.967 168.382 760.656 167.797 759.436C168.421 759.998 169.023 760.583 169.566 761.053C170.807 762.117 172.074 763.172 173.315 764.236C175.89 766.453 178.414 768.735 180.942 771.03C183.259 773.129 185.576 775.228 187.909 777.367C189.309 778.922 190.907 780.287 192.66 781.429C192.488 781.907 192.342 782.375 192.206 782.87C190.095 781.565 188.165 780.009 186.049 778.692C183.247 776.919 180.546 774.989 177.961 772.913C177.83 772.809 177.653 773.028 177.765 773.124C180.058 775.355 182.516 777.409 185.119 779.27C186.421 780.174 187.681 781.124 188.967 782.065C189.988 782.591 190.978 783.175 191.933 783.814L191.894 783.996C190.584 783.783 189.307 783.397 188.098 782.85C186.901 782.35 185.65 782.238 184.441 781.666C181.85 780.621 179.203 779.719 176.513 778.964C176.408 778.928 176.293 778.935 176.194 778.984C176.095 779.033 176.019 779.119 175.983 779.224C175.947 779.328 175.954 779.443 176.003 779.542C176.052 779.642 176.138 779.718 176.243 779.753C179.053 780.841 181.776 782.268 184.628 783.264C186.882 784.204 189.228 784.909 191.628 785.366C191.552 785.777 191.509 786.191 191.452 786.61C190.036 785.733 187.486 786.277 185.914 786.04C183.83 785.824 181.781 785.349 179.814 784.625C179.757 784.555 179.7 784.729 179.784 784.79L179.849 784.842Z" fill="url(#paint0_linear_732_1361)"/>
<path d="M316.821 688.136C316.031 690.556 315.281 692.996 314.441 695.406C312.791 700.166 310.761 704.866 308.731 709.486C306.921 713.596 304.491 717.486 302.371 721.486C301.811 722.546 300.571 723.886 301.151 725.146C301.461 725.836 302.401 726.436 302.931 726.936C303.641 727.596 304.371 728.226 305.081 728.886C306.761 730.426 308.341 732.076 310.081 733.606C311.231 734.606 312.371 736.286 313.741 737.046C315.111 737.806 317.471 737.406 318.991 737.466C320.511 737.526 322.211 737.466 323.821 737.466H323.921H324.921C326.391 737.466 328.921 737.746 330.241 737.006C331.561 736.266 332.241 734.536 333.021 733.426C335.641 729.586 338.331 725.936 341.271 722.336C344.021 718.976 346.451 715.336 349.061 711.906C350.441 710.086 351.841 708.296 353.271 706.516C354.271 705.316 355.841 703.886 356.271 702.356C356.305 702.226 356.304 702.09 356.267 701.962C356.23 701.833 356.159 701.717 356.061 701.626L355.991 701.576C356.701 700.786 357.09 699.758 357.081 698.696C357.094 698.184 356.985 697.676 356.762 697.215C356.54 696.754 356.21 696.353 355.801 696.046C356.741 695.046 356.801 692.876 356.431 691.806C355.979 690.777 355.203 689.923 354.221 689.376C353.775 689.111 353.257 688.995 352.741 689.046C353.018 688.39 353.127 687.675 353.059 686.966C352.991 686.258 352.748 685.577 352.351 684.986C351.671 684.176 349.261 683.136 347.881 683.556C348.079 682.9 348.115 682.207 347.986 681.535C347.858 680.862 347.567 680.231 347.141 679.696C346.051 678.256 344.041 678.696 342.711 679.696C342.825 678.982 342.716 678.251 342.397 677.602C342.078 676.954 341.566 676.421 340.931 676.076C340.491 675.893 340.01 675.83 339.537 675.893C339.065 675.956 338.618 676.144 338.241 676.436C338.02 676.61 337.842 676.832 337.721 677.086C337.635 676.763 337.47 676.468 337.241 676.226C337.076 676.03 336.873 675.869 336.645 675.754C336.416 675.639 336.166 675.571 335.911 675.556C335.419 675.528 334.932 675.669 334.531 675.956C334.473 675.995 334.426 676.049 334.396 676.112C334.367 676.176 334.354 676.246 334.361 676.316C334.074 676.22 333.768 676.199 333.471 676.256C333.102 676.388 332.762 676.592 332.471 676.856C331.701 675.546 330.831 674.486 329.121 675.266C328.522 675.462 328.025 675.889 327.74 676.451C327.455 677.014 327.405 677.666 327.601 678.266C327.085 678.34 326.602 678.565 326.213 678.912C325.824 679.258 325.545 679.712 325.411 680.216C324.231 679.476 322.731 678.836 321.701 680.086C320.671 681.336 320.961 683.376 321.701 684.616C321.522 684.905 321.406 685.229 321.361 685.566C320.917 685.063 320.428 684.601 319.901 684.186C319.777 684.077 319.622 684.008 319.458 683.988C319.294 683.969 319.127 683.999 318.981 684.076C317.531 684.596 317.211 686.916 316.821 688.136ZM325.451 682.136C325.147 682.347 324.91 682.642 324.771 682.986C324.61 683.375 324.549 683.797 324.591 684.216L324.501 684.156C324.195 683.96 323.856 683.821 323.501 683.746C323.24 683.696 322.972 683.696 322.711 683.746C322.591 683.416 322.421 683.096 322.351 682.866C322.141 682.086 321.851 680.636 322.891 680.236C323.29 680.117 323.713 680.098 324.121 680.182C324.529 680.266 324.911 680.449 325.231 680.716C325.17 681.2 325.246 681.692 325.451 682.136ZM334.631 699.546C334.707 698.747 334.924 697.969 335.271 697.246C336.171 695.726 338.051 696.336 338.021 698.156C338.026 698.259 338.07 698.357 338.144 698.429C338.218 698.502 338.317 698.543 338.421 698.546C338.589 698.546 338.756 698.53 338.921 698.496C339.214 698.284 339.568 698.174 339.929 698.183C340.291 698.192 340.639 698.319 340.921 698.546L341.451 699.606C341.522 700.332 341.423 701.065 341.161 701.746C340.161 701.646 339.211 701.546 338.231 701.506C337.251 701.466 336.231 701.646 335.431 701.066C335.013 700.723 334.646 700.322 334.341 699.876C334.414 699.852 334.48 699.809 334.531 699.751C334.582 699.692 334.617 699.622 334.631 699.546ZM347.521 698.426C347.451 698.065 347.31 697.721 347.106 697.416C346.901 697.11 346.638 696.848 346.331 696.646C346.114 696.518 345.875 696.435 345.626 696.4C345.377 696.366 345.124 696.381 344.881 696.446C345.096 696.137 345.232 695.781 345.277 695.408C345.322 695.035 345.276 694.656 345.141 694.306C345.47 693.926 345.923 693.676 346.42 693.6C346.916 693.525 347.424 693.629 347.85 693.894C348.277 694.159 348.595 694.568 348.747 695.047C348.899 695.525 348.876 696.043 348.681 696.506C348.644 696.663 348.671 696.829 348.755 696.967C348.839 697.106 348.974 697.205 349.131 697.246C351.881 697.616 352.011 700.036 349.961 701.246H349.471C348.471 701.316 347.551 701.426 346.581 701.546C346.992 701.15 347.294 700.655 347.459 700.109C347.623 699.562 347.645 698.983 347.521 698.426ZM345.121 701.756L343.811 701.896H343.111H342.471C342.732 701.239 342.828 700.528 342.751 699.826C342.491 698.216 341.631 697.446 340.521 697.326C340.671 696.426 340.411 695.516 341.181 694.666C341.468 694.345 341.842 694.115 342.257 694.003C342.673 693.891 343.112 693.903 343.521 694.036L344.301 695.836C344.301 696.186 343.921 696.556 343.841 696.916C343.827 696.977 343.828 697.04 343.842 697.1C343.856 697.161 343.884 697.218 343.924 697.266C343.963 697.314 344.013 697.353 344.07 697.379C344.127 697.404 344.189 697.417 344.251 697.416C344.851 697.416 345.751 697.216 346.151 697.696C346.587 698.292 346.78 699.032 346.691 699.766C346.397 700.582 345.846 701.28 345.121 701.756ZM344.491 693.446C344.059 693.053 343.512 692.812 342.931 692.758C342.35 692.704 341.768 692.84 341.271 693.146C341.259 692.657 341.143 692.176 340.931 691.736C340.818 691.459 340.647 691.209 340.43 691.004C340.213 690.799 339.954 690.642 339.671 690.546C339.497 690.511 339.319 690.514 339.146 690.553C338.974 690.593 338.812 690.669 338.671 690.776C338.463 690.256 338.172 689.773 337.811 689.346C337.951 689.106 337.811 689.046 338.031 688.466C338.105 688.147 338.257 687.851 338.473 687.604C338.688 687.358 338.961 687.168 339.267 687.051C339.573 686.935 339.903 686.895 340.228 686.936C340.553 686.977 340.863 687.097 341.131 687.286C341.801 687.776 341.661 688.836 342.271 689.286C342.661 689.576 342.951 689.286 343.351 689.236C346.031 688.926 346.351 690.596 345.911 692.456C345.368 692.672 344.881 693.011 344.491 693.446ZM336.231 695.446C336.331 695.027 336.345 694.592 336.273 694.168C336.2 693.743 336.043 693.338 335.811 692.976C335.657 692.75 335.46 692.556 335.231 692.406C335.326 691.969 335.36 691.522 335.331 691.076C335.401 689.976 336.331 689.236 337.391 690.286C337.657 690.673 337.847 691.107 337.951 691.566C337.988 691.688 338.072 691.791 338.184 691.853C338.296 691.915 338.428 691.93 338.551 691.896C339.151 691.756 339.381 691.066 340.211 692.176C340.494 692.637 340.627 693.175 340.591 693.716C340.143 694.214 339.799 694.798 339.581 695.432C339.363 696.066 339.274 696.737 339.321 697.406C339.128 697.452 338.938 697.512 338.751 697.586C338.74 697.277 338.666 696.975 338.534 696.696C338.401 696.418 338.213 696.17 337.98 695.967C337.747 695.765 337.476 695.612 337.182 695.519C336.888 695.426 336.578 695.394 336.271 695.426L336.231 695.446ZM333.621 699.036C332.291 697.406 330.901 695.866 329.481 694.336C329.529 694.267 329.561 694.188 329.575 694.105C329.589 694.022 329.584 693.937 329.561 693.856C329.229 692.956 329.261 691.962 329.651 691.086C330.271 689.956 331.401 690.086 332.141 691.086C332.671 691.816 332.511 693.086 333.291 693.526C333.361 693.57 333.443 693.594 333.526 693.594C333.609 693.594 333.691 693.57 333.761 693.526C334.681 692.976 335.621 694.666 335.321 695.686C334.698 695.967 334.191 696.453 333.882 697.062C333.573 697.671 333.481 698.367 333.621 699.036ZM329.511 689.286H329.451C329.451 688.436 328.961 687.656 329.141 686.786C329.313 686.21 329.642 685.694 330.091 685.296C330.342 685.13 330.642 685.056 330.941 685.086C331.02 685.139 331.116 685.164 331.211 685.156C331.681 685.386 331.981 685.986 332.291 686.426C332.601 686.866 332.651 686.936 333.111 687.016C333.385 687.016 333.659 686.996 333.931 686.956L334.931 688.096C335.075 688.409 335.143 688.751 335.131 689.096C334.72 689.49 334.421 689.987 334.264 690.535C334.108 691.084 334.1 691.663 334.241 692.216C334.123 692.244 333.999 692.244 333.881 692.216H333.791C333.78 692.156 333.752 692.1 333.711 692.056C333.501 691.786 333.461 691.116 333.301 690.786C332.541 689.376 331.071 688.326 329.511 689.266V689.286ZM327.931 692.686L326.771 691.476C325.931 690.586 325.091 689.706 324.261 688.806C324.271 688.751 324.293 688.699 324.324 688.653C324.355 688.606 324.394 688.567 324.441 688.536C324.721 688.376 324.851 688.636 325.131 688.676C325.253 688.709 325.383 688.703 325.502 688.658C325.62 688.613 325.721 688.532 325.791 688.426C325.931 688.266 325.931 687.976 326.071 687.826C326.651 687.226 327.241 687.396 327.771 687.926C327.984 688.154 328.174 688.402 328.341 688.666C328.441 688.966 328.561 689.276 328.691 689.586C328.728 689.67 328.791 689.74 328.871 689.786C328.504 690.161 328.228 690.616 328.065 691.116C327.902 691.615 327.856 692.146 327.931 692.666V692.686ZM323.521 687.566C323.452 687.642 323.392 687.726 323.341 687.816L322.681 687.096C322.566 686.972 322.477 686.827 322.42 686.669C322.363 686.511 322.338 686.342 322.348 686.174C322.357 686.006 322.4 685.842 322.475 685.691C322.549 685.54 322.653 685.405 322.781 685.296C323.391 684.646 323.481 684.826 324.141 685.236C324.471 685.456 324.671 685.756 325.141 685.716C325.26 685.708 325.374 685.663 325.467 685.588C325.561 685.513 325.628 685.411 325.661 685.296C325.811 684.576 325.371 683.706 326.191 683.296C327.271 682.756 328.341 684.296 328.791 685.296C328.321 685.895 328.089 686.646 328.141 687.406C327.874 687.087 327.53 686.842 327.141 686.696C326.943 686.607 326.728 686.561 326.511 686.561C326.294 686.561 326.079 686.607 325.881 686.696C325.501 686.926 325.451 687.376 325.241 687.696C324.601 687.406 324.131 686.916 323.521 687.546V687.566ZM327.841 679.216C327.886 679.258 327.94 679.29 327.999 679.309C328.057 679.328 328.12 679.333 328.181 679.326C328.591 679.566 328.921 680.126 329.381 680.436C329.841 680.746 329.761 680.546 330.131 680.506C331.391 680.336 331.751 681.386 331.571 682.436C331.12 682.892 330.838 683.488 330.771 684.126C330.495 684.113 330.22 684.155 329.961 684.249C329.701 684.343 329.464 684.488 329.261 684.676C329.124 683.979 328.775 683.341 328.261 682.85C327.747 682.36 327.094 682.04 326.391 681.936C326.441 681.086 326.201 680.216 326.941 679.586C327.057 679.464 327.197 679.366 327.351 679.3C327.506 679.233 327.672 679.197 327.841 679.196V679.216ZM334.561 677.576C334.909 677.919 335.175 678.337 335.34 678.797C335.504 679.258 335.563 679.749 335.511 680.236C335.239 680.844 335.086 681.5 335.061 682.166C334.675 681.848 334.201 681.655 333.703 681.612C333.205 681.569 332.706 681.679 332.271 681.926C332.342 681.484 332.286 681.031 332.109 680.62C331.932 680.209 331.641 679.857 331.271 679.606C330.671 679.286 330.511 679.676 330.001 679.606C329.641 679.556 329.381 678.966 329.051 678.696C328.939 678.612 328.822 678.535 328.701 678.466C328.701 677.616 328.511 676.696 329.431 676.146C330.651 675.426 331.221 676.806 331.741 677.596C331.798 677.679 331.879 677.744 331.974 677.782C332.068 677.819 332.172 677.827 332.271 677.806C333.081 677.666 333.491 676.766 334.561 677.556V677.576ZM337.151 678.576C337.134 678.697 337.111 678.817 337.081 678.936C336.796 679.016 336.527 679.141 336.281 679.306C336.265 678.805 336.148 678.313 335.937 677.86C335.725 677.406 335.424 677 335.051 676.666L334.831 676.486C335.121 676.426 335.451 676.266 335.571 676.266C336.681 676.206 337.201 677.626 337.151 678.586V678.576ZM335.321 684.336C335.621 684.476 335.701 684.336 336.011 684.336C336.781 684.186 337.461 683.386 338.011 684.546C338.351 685.296 337.801 686.096 337.461 686.706C337.422 686.758 337.401 686.821 337.401 686.886C337.401 686.951 337.422 687.014 337.461 687.066C337.265 687.306 337.119 687.582 337.032 687.879C336.944 688.176 336.917 688.488 336.951 688.796C336.623 688.707 336.278 688.707 335.951 688.796C335.97 688.106 335.782 687.427 335.411 686.846C335.246 686.599 335.02 686.399 334.756 686.264C334.492 686.13 334.197 686.065 333.901 686.076C333.331 686.006 333.291 686.076 332.901 685.596C332.721 685.386 332.591 685.136 332.391 684.936C332.219 684.775 332.031 684.631 331.831 684.506C331.837 684.483 331.837 684.459 331.831 684.436C331.783 684.045 331.884 683.652 332.114 683.333C332.344 683.014 332.685 682.793 333.071 682.716L333.901 682.646C335.101 682.956 334.521 683.956 335.321 684.346V684.336ZM341.581 680.516C340.989 680.464 340.395 680.586 339.871 680.866C339.781 680.606 339.751 680.276 339.651 680.076C339.472 679.758 339.238 679.473 338.961 679.236C338.72 679.021 338.421 678.882 338.101 678.836C338.101 678.836 338.101 678.836 338.101 678.776C338.361 677.886 338.101 677.046 339.261 676.726C341.151 676.186 342.521 678.966 341.581 680.436C341.575 680.465 341.575 680.496 341.581 680.526V680.516ZM342.981 684.576C342.42 685.104 342.022 685.78 341.831 686.526C341.356 686.177 340.795 685.964 340.208 685.911C339.621 685.858 339.031 685.967 338.501 686.226C339.031 685.226 339.251 684.226 338.241 683.376C338.063 683.197 337.845 683.063 337.605 682.985C337.365 682.907 337.11 682.887 336.861 682.926C336.731 682.926 335.961 683.336 335.941 683.326C335.731 683.246 335.761 682.986 335.641 682.806C335.744 682.8 335.843 682.761 335.922 682.694C336.002 682.627 336.057 682.537 336.081 682.436C336.191 681.876 336.301 680.786 336.811 680.436C337.321 680.086 338.391 680.516 338.741 680.896C339.091 681.276 338.961 681.646 339.331 681.896C339.415 681.971 339.521 682.019 339.633 682.034C339.746 682.048 339.86 682.028 339.961 681.976C342.491 680.656 342.871 683.116 342.981 684.586V684.576ZM346.601 683.926C346.356 683.784 346.089 683.686 345.811 683.636C345.125 683.525 344.422 683.644 343.811 683.976C343.868 683.381 343.771 682.781 343.529 682.235C343.288 681.689 342.909 681.214 342.431 680.856C343.521 680.116 345.111 678.856 346.301 680.176C346.734 680.694 346.996 681.334 347.05 682.008C347.104 682.681 346.947 683.355 346.601 683.936V683.926ZM346.771 687.236C346.771 687.466 346.771 687.686 346.771 687.906C346.773 687.988 346.803 688.067 346.856 688.13C346.908 688.194 346.98 688.238 347.061 688.256C347.541 688.366 347.881 688.086 348.341 688.036C351.131 687.746 350.791 690.446 349.741 692.036C349.348 692.312 348.971 692.609 348.611 692.926C348.044 692.525 347.365 692.315 346.671 692.326C346.931 691.676 346.992 690.963 346.848 690.278C346.704 689.593 346.36 688.966 345.861 688.476C345.64 688.266 345.366 688.12 345.068 688.053C344.771 687.986 344.461 688.001 344.171 688.096C343.661 688.196 343.171 688.766 342.811 688.516C343.031 688.666 342.441 687.256 342.531 687.426C342.555 687.388 342.575 687.348 342.591 687.306C342.744 686.504 343.194 685.79 343.851 685.306C344.851 684.586 344.851 684.686 345.851 685.546C346.851 686.406 346.761 686.196 346.771 687.246V687.236ZM351.471 689.236H351.271C351.205 688.934 351.101 688.641 350.961 688.366C350.832 688.062 350.632 687.794 350.378 687.584C350.124 687.373 349.823 687.226 349.501 687.156C348.861 687.026 348.201 687.496 347.591 687.546C347.782 686.595 347.699 685.61 347.351 684.706C347.94 684.478 348.584 684.429 349.201 684.566C349.828 684.65 350.433 684.858 350.981 685.176C352.051 685.896 352.201 688.036 351.471 689.196V689.236ZM354.931 695.536C354.518 695.364 354.084 695.25 353.641 695.196C353.757 694.63 353.804 694.053 353.781 693.476C353.691 693.109 353.521 692.767 353.285 692.474C353.048 692.18 352.75 691.942 352.411 691.776C351.924 691.514 351.357 691.443 350.821 691.576C351.116 691.12 351.291 690.597 351.331 690.056C351.905 689.869 352.507 689.777 353.111 689.786C353.879 690.062 354.538 690.577 354.991 691.256C355.242 691.596 355.423 691.982 355.524 692.392C355.625 692.802 355.645 693.228 355.581 693.646C355.569 694.316 355.341 694.965 354.931 695.496V695.536ZM354.451 701.176H353.591C352.941 701.176 352.291 701.176 351.651 701.176C352.018 700.853 352.302 700.446 352.476 699.99C352.65 699.533 352.71 699.041 352.651 698.556C352.649 698.179 352.568 697.807 352.415 697.463C352.262 697.118 352.039 696.81 351.761 696.556C351.273 696.227 350.687 696.076 350.101 696.126C350.199 695.659 350.182 695.176 350.052 694.718C349.921 694.26 349.68 693.84 349.351 693.496C349.689 693.066 350.16 692.76 350.691 692.626L352.601 693.256C353.271 693.986 352.401 694.986 352.601 695.796C352.626 695.888 352.676 695.972 352.744 696.038C352.813 696.105 352.898 696.153 352.991 696.176C354.261 696.416 355.511 696.876 355.671 698.366C355.709 698.892 355.618 699.42 355.405 699.902C355.193 700.385 354.865 700.809 354.451 701.136V701.176ZM325.791 735.506C326.131 735.016 326.451 734.506 326.791 734.106C328.041 732.426 329.381 730.826 330.661 729.176C333.061 726.116 335.351 722.996 337.771 719.966C339.991 717.186 342.191 714.376 344.291 711.516C345.531 709.826 346.731 708.106 347.941 706.406C348.622 705.274 349.363 704.179 350.161 703.126C351.161 702.956 352.101 702.756 353.071 702.506C353.534 702.469 353.998 702.469 354.461 702.506C353.984 703.18 353.463 703.821 352.901 704.426C352.081 705.426 351.231 706.476 350.441 707.536C349.241 709.146 348.061 710.786 346.881 712.416C344.241 716.086 341.651 719.766 338.811 723.286C336.501 726.146 334.211 728.986 332.011 731.936C331.364 732.922 330.634 733.852 329.831 734.716C329.508 735.002 329.128 735.215 328.716 735.341C328.303 735.467 327.868 735.503 327.441 735.446C326.861 735.456 326.331 735.466 325.791 735.466V735.506ZM321.401 735.506C322.881 733.506 324.261 731.506 325.601 729.426C327.521 726.426 329.651 723.646 331.601 720.686C333.651 717.546 335.941 714.566 338.061 711.466C339.791 708.936 341.301 706.256 342.921 703.656H343.171C345.178 703.656 347.183 703.516 349.171 703.236C349.021 703.426 348.881 703.626 348.751 703.806C347.521 705.466 346.291 707.136 345.111 708.806C342.841 712.066 340.471 715.246 338.051 718.396C335.631 721.546 333.051 724.826 330.431 727.976C328.431 730.396 326.671 732.976 324.751 735.436C323.901 735.436 323.051 735.436 322.201 735.436L321.401 735.506ZM315.881 735.396C316.301 734.826 316.651 734.186 317.001 733.636C318.101 731.946 319.281 730.346 320.491 728.736C322.463 726.194 324.26 723.521 325.871 720.736C329.111 715.016 333.121 709.446 335.621 703.336C336.28 703.458 336.951 703.505 337.621 703.476C339.121 703.476 340.621 703.616 342.101 703.676C340.211 705.746 338.981 708.496 337.401 710.786C335.321 713.786 333.071 716.666 331.011 719.666C328.951 722.666 326.711 725.666 324.741 728.736C323.271 731.026 321.791 733.316 320.221 735.536C319.001 735.536 317.781 735.466 316.551 735.436L315.881 735.396ZM316.471 725.396C317.471 723.756 318.301 722.026 319.261 720.396C320.221 718.766 321.261 717.336 322.171 715.766C323.901 712.766 325.631 709.766 327.411 706.836C328.94 704.55 330.319 702.169 331.541 699.706C332.22 700.662 332.976 701.561 333.801 702.396C334.125 702.71 334.505 702.961 334.921 703.136C331.241 708.196 328.191 713.816 325.001 719.136C323.341 721.916 321.681 724.676 319.801 727.316C318.711 728.846 317.571 730.316 316.551 731.906C315.993 733.047 315.286 734.109 314.451 735.066H314.361C313.755 734.543 313.187 733.978 312.661 733.376L312.331 733.046C312.974 732.023 313.539 730.954 314.021 729.846C314.871 728.326 315.601 726.816 316.471 725.366V725.396ZM316.471 711.506C319.541 705.366 322.171 698.976 325.371 692.906C325.681 693.256 326.001 693.586 326.321 693.906C327.651 695.306 329.021 696.676 330.321 698.136C330.531 698.376 330.731 698.616 330.931 698.866C330.156 700.036 329.445 701.248 328.801 702.496C328.041 703.876 327.121 705.146 326.331 706.496C324.641 709.406 323.011 712.326 321.331 715.256C320.391 716.956 319.271 718.546 318.331 720.256C317.391 721.966 316.581 723.636 315.551 725.256C314.631 726.696 313.771 728.166 312.831 729.586C312.275 730.377 311.774 731.206 311.331 732.066L307.681 728.566C308.191 727.336 308.961 726.156 309.511 724.956C310.231 723.366 310.971 721.786 311.781 720.236C313.371 717.286 315.011 714.436 316.491 711.476L316.471 711.506ZM319.121 685.666C321.041 687.846 322.861 690.096 324.801 692.276C321.201 698.406 318.201 704.936 315.031 711.276C313.471 714.396 311.681 717.426 310.221 720.596C309.541 722.056 308.921 723.596 308.221 725.026C307.791 725.936 307.271 726.876 306.921 727.846L304.361 725.406C303.957 725.083 303.582 724.725 303.241 724.336C303.217 724.326 303.197 724.309 303.183 724.288C303.168 724.266 303.161 724.241 303.161 724.216C303.161 724.19 303.168 724.165 303.183 724.144C303.197 724.122 303.217 724.106 303.241 724.096C303.486 723.407 303.784 722.739 304.131 722.096C304.991 720.346 305.891 718.626 306.781 716.906C308.551 713.496 310.111 710.076 311.591 706.536C313.071 702.996 314.591 699.616 315.771 696.066C316.421 694.196 317.011 692.326 317.601 690.446C317.801 689.846 318.491 686.636 319.141 685.636L319.121 685.666Z" fill="url(#paint1_linear_732_1361)"/>
<path d="M79.7893 707.891C78.783 707.917 77.7805 708.025 76.7916 708.213C76.2842 708.317 75.758 708.28 75.2706 708.104C74.7832 707.929 74.3535 707.623 74.0287 707.219C72.0054 705.615 69.8977 704.12 67.7147 702.74C63.6378 699.866 58.2182 696.435 56.4676 691.499L56.4553 691.441C56.5471 691.312 56.6069 691.162 56.6297 691.006C56.7617 690.632 56.8554 690.246 56.9092 689.854C56.9205 689.718 56.892 689.582 56.8271 689.462C57.2457 687.654 57.3042 685.781 56.9991 683.95C56.3874 681.667 53.9182 681.244 52.6231 679.503C51.0261 677.345 51.3765 674.339 49.4569 672.3C48.6936 671.561 47.8004 670.969 46.8223 670.553C46.1578 670.339 45.5206 670.047 44.9236 669.685C44.3267 669.003 43.9205 668.175 43.7459 667.285C43.0763 665.311 42.0813 663.149 40.1244 662.149C37.8427 661.014 35.3781 661.296 32.954 661.089C30.5299 660.882 29.0677 658.246 26.4922 658C24.5213 657.81 22.6551 658.947 21.102 660.019C19.8957 660.844 18.8058 662.371 17.2981 662.636C16.2759 662.658 15.26 662.803 14.272 663.066C12.2104 664.008 10.4732 665.539 9.27866 667.465C7.92518 669.537 7.66284 671.891 6.97506 674.262C6.28729 676.634 4.76364 678.333 4.72119 680.713C4.67874 683.092 6.34191 684.981 6.08839 687.231C5.83488 689.481 5.47869 691.241 6.49797 693.275C7.46556 695.107 8.93583 696.624 10.736 697.648C11.2523 697.918 11.8419 698.05 12.3212 698.338C12.9099 698.792 13.4137 699.347 13.8095 699.977C14.4015 700.855 15.1874 701.585 16.1064 702.111C18.2414 703.278 20.7157 703.188 23.0766 703.142C24.9415 703.119 25.7541 703.194 27.087 704.579C27.8306 705.433 28.7046 706.164 29.6765 706.744C34.4917 709.29 39.8492 706.919 44.2785 704.703C45.3827 704.706 46.4688 704.867 47.6076 704.791C49.3186 704.668 50.9149 705.068 52.5913 705.023C52.7101 705.034 52.8294 705.009 52.9339 704.951C56.0575 706.23 59.097 707.705 62.0342 709.367C63.957 710.497 65.984 711.441 67.9088 712.58C69.8336 713.719 69.875 716.254 70.5317 718.313C71.3898 720.943 73.6133 726.332 77.3131 724.534C78.8242 723.798 79.6713 721.893 80.0767 720.368C80.3423 719.269 80.299 718.118 79.9514 717.043C82.6389 717.725 85.8168 716.752 86.5215 713.682C87.4193 710.071 82.6899 707.885 79.7893 707.891ZM46.5522 703.511C45.7367 703.509 44.9297 703.678 44.1838 704.008C40.4393 705.641 34.7605 707.21 30.9112 705.177C29.2004 704.279 28.4516 702.219 26.7237 701.386C25.2461 700.674 23.3279 701.077 21.7272 701.044C19.3874 701.045 17.2548 700.961 15.6462 699.04C15.1504 698.292 14.5737 697.601 13.9265 696.979C13.0515 696.315 11.9303 696.182 11.03 695.543C10.1052 694.936 9.31816 694.142 8.7199 693.211C8.12163 692.28 7.72548 691.235 7.55712 690.141C7.38144 688.134 8.13968 686.586 7.36856 684.663C6.42677 682.317 5.92246 680.399 7.22051 678.063C8.15738 676.281 8.84816 674.379 9.27397 672.411C9.69851 670.279 10.6972 668.303 12.1624 666.696C12.9966 665.783 14.0293 665.074 15.1809 664.623C16.305 664.234 17.4372 664.711 18.5283 664.36C19.2816 663.967 19.9466 663.424 20.4824 662.765C21.4846 661.877 22.6033 661.13 23.8075 660.545C24.245 660.273 24.7319 660.089 25.2403 660.006C25.7487 659.922 26.2686 659.939 26.7703 660.056C28.1055 660.43 28.9622 661.64 30.0963 662.322C31.6766 663.329 33.6221 663.105 35.386 663.184C38.4194 663.324 40.3129 664.266 41.4011 667.164C42.1978 669.306 42.5673 671.068 44.8085 672.059C46.3546 672.756 47.8128 673.278 48.6222 674.896C49.0876 676.044 49.4684 677.224 49.7614 678.428C50.4214 680.301 51.7422 681.87 53.4761 682.839C54.9185 683.773 55.1315 684.74 55.0901 686.394C55.0566 687.841 54.933 689.298 54.8268 690.74L54.8433 690.818C54.3676 691.758 54.0377 692.764 53.8651 693.803C53.8139 694.699 53.8552 695.597 53.9882 696.485C52.0822 697.14 49.9728 696.826 49.0683 699.09C48.3294 701.023 49.6842 702.026 50.7844 703.277C50.3682 703.204 49.9466 703.166 49.5242 703.163C48.5283 703.229 47.5364 703.345 46.5522 703.511ZM84.5653 712.54C84.8822 713.709 84.0271 714.553 83.1162 715.081C82.4666 715.456 81.7223 715.633 80.9737 715.592C80.2251 715.552 79.5045 715.295 78.8993 714.852C78.7441 714.731 78.5505 714.671 78.3544 714.683C78.1583 714.695 77.9731 714.777 77.8333 714.915C77.6936 715.053 77.6087 715.238 77.5946 715.434C77.5805 715.63 77.6381 715.824 77.7567 715.981C78.3719 717.014 78.6255 718.222 78.4772 719.416C78.3524 720.331 77.714 722.11 76.8638 722.636C74.7482 723.948 73.2626 720.08 72.7769 718.691C71.8741 715.896 71.878 712.749 69.082 711.159C66.1361 709.445 63.0858 707.918 59.9489 706.586C58.2951 705.911 56.6227 705.342 54.9756 704.748C54.4149 704.559 53.8552 704.278 53.3414 704.069L53.3229 703.981C52.6833 702.49 50.8761 701.766 50.7784 700.131C50.7149 699 51.2229 698.791 52.2969 698.505C52.659 698.429 53.0505 698.347 53.4127 698.271C54.0196 698.22 54.6178 698.095 55.1939 697.897C55.3395 697.841 55.4672 697.746 55.5637 697.624C55.6602 697.501 55.722 697.355 55.7424 697.2C55.8405 696.157 55.4838 695.139 55.6324 694.045L55.709 693.631C57.1165 696.363 59.1313 698.737 61.5988 700.569C63.0787 701.73 64.5854 702.824 66.0982 703.948C67.8756 705.261 69.885 706.219 71.6083 707.615C72.6578 708.477 73.8849 710.09 75.2485 710.356C76.6121 710.621 78.1161 709.754 79.4923 709.69C81.3846 709.651 84.0065 710.46 84.5653 712.54Z" fill="url(#paint2_linear_732_1361)"/>
<path d="M38.0327 696.847C36.5457 697.65 35.462 699.205 33.5343 698.394C32.0397 697.747 31.656 696.356 30.8132 695.164C29.3419 693.02 26.3983 695.354 24.2732 694.819C22.5708 694.399 22.0436 692.763 20.6918 691.871C19.8687 691.429 18.9236 691.269 18.0006 691.414C15.3714 691.496 13.8906 690.233 13.5541 687.606C13.2878 685.557 13.2859 683.258 14.8759 681.729C14.979 681.636 14.8226 681.475 14.7468 681.552C12.3352 683.304 11.9426 687.668 13.2669 690.231C13.6283 690.918 14.1582 691.502 14.8071 691.929C15.456 692.356 16.2025 692.611 16.9768 692.671C18.3215 692.798 19.2914 692.696 20.2784 693.797C20.8218 694.586 21.4537 695.311 22.1617 695.957C22.8221 696.413 23.5684 696.729 24.3552 696.888C25.142 697.046 25.9528 697.042 26.7381 696.877C27.3155 696.756 28.8848 696.151 29.3708 696.324C29.8569 696.498 30.4054 697.896 30.7306 698.277C31.2162 698.9 31.8326 699.409 32.5364 699.768C33.2403 700.127 34.0143 700.328 34.8039 700.355C36.6848 700.359 37.7111 699.163 38.6068 697.636C38.8445 697.26 38.5283 696.58 38.0327 696.847Z" fill="url(#paint3_linear_732_1361)"/>
<path d="M46.2361 691.53C44.895 692.833 44.5791 695.127 42.1993 695.034C41.5205 695.013 40.903 695.04 40.2128 695.062C39.5211 695.069 38.8432 694.868 38.2662 694.487C37.6892 694.105 37.2393 693.56 36.9744 692.921C36.7033 692.457 35.9505 692.911 36.1629 693.388C36.5211 694.621 37.353 695.663 38.4768 696.285C39.0817 696.55 39.7403 696.671 40.4001 696.637C41.1825 696.616 41.941 696.774 42.7156 696.765C44.9452 696.726 47.5681 694.081 47.235 691.811C47.2226 691.701 47.1775 691.596 47.1053 691.511C47.0332 691.426 46.9374 691.365 46.8301 691.335C46.7229 691.304 46.609 691.307 46.5032 691.342C46.3974 691.377 46.3044 691.442 46.2361 691.53Z" fill="url(#paint4_linear_732_1361)"/>
<path d="M36.5449 687.708C36.1414 688.61 35.1666 689.857 34.0264 689.146C33.2274 688.649 32.9769 687.455 32.6536 686.644C32.5849 686.497 32.4627 686.381 32.3117 686.321C32.1608 686.26 31.9924 686.259 31.8409 686.318C31.6893 686.378 31.566 686.492 31.4959 686.639C31.4258 686.786 31.4143 686.954 31.4636 687.109C31.9216 688.269 32.2511 689.743 33.2018 690.525C32.1777 691.536 30.9919 692.459 29.441 692.08C27.2906 691.57 26.3689 689.904 26.1438 687.857C26.0876 687.296 25.2748 687.416 25.2955 687.953C25.3883 690.539 26.5514 693.064 29.2914 693.705C31.3218 694.178 33.889 693.119 34.4694 691.015C35.307 691.103 36.1479 690.88 36.8308 690.387C37.1859 690.085 37.4598 689.699 37.6274 689.264C37.795 688.829 37.8509 688.359 37.7901 687.897C37.805 687.189 36.7987 687.165 36.5449 687.708Z" fill="url(#paint5_linear_732_1361)"/>
<path d="M23.2979 684.08C22.8333 684.74 22.1586 685.566 21.3268 684.913C20.8085 684.397 20.3847 683.794 20.0745 683.132C19.6681 682.461 18.4877 683.117 18.857 683.806C19.4217 684.842 19.9615 686.149 21.1117 686.664C22.697 687.353 24.0085 686.251 24.5246 684.814C24.7765 684.067 23.7876 683.395 23.2979 684.08Z" fill="url(#paint6_linear_732_1361)"/>
<path d="M21.6443 666.843C19.7124 666.697 17.7816 667.141 16.1079 668.117C14.6661 669.134 14.4223 671.382 14.4355 673.004C14.4263 673.109 14.4313 673.214 14.4503 673.318C14.2975 673.474 14.1549 673.641 14.0234 673.816C13.6595 674.566 13.5954 675.428 13.844 676.224C14.01 677 14.4321 677.698 15.0426 678.206C15.6531 678.713 16.4165 679.001 17.2102 679.023C17.3319 679.01 17.446 678.958 17.5345 678.873C17.6231 678.789 17.6809 678.677 17.6989 678.556C17.7169 678.435 17.694 678.312 17.6339 678.205C17.5738 678.099 17.4799 678.015 17.367 677.968C15.6444 677.696 14.0774 675.388 15.7234 673.98C15.8168 673.909 15.8898 673.815 15.9353 673.707C15.9807 673.599 15.997 673.48 15.9824 673.364C15.8763 672.871 15.8809 672.361 15.9959 671.869C16.0402 671.116 16.3461 670.402 16.8608 669.85C17.3756 669.298 18.0668 668.943 18.8153 668.846C19.9115 668.616 21.1955 668.551 21.9877 667.701C22.054 667.63 22.0987 667.542 22.1167 667.446C22.1346 667.351 22.1249 667.253 22.0889 667.162C22.0529 667.072 21.9919 666.995 21.9131 666.938C21.8344 666.881 21.7411 666.848 21.6443 666.843Z" fill="url(#paint7_linear_732_1361)"/>
<path d="M36.4555 668.916C34.8045 668.742 34.13 666.451 32.206 666.242C30.5215 666.054 29.7552 667.369 29.1341 668.695C28.9303 669.136 29.633 669.612 29.8914 669.139C32.0205 665.698 33.6287 670.102 35.8236 670.336C37.4669 670.523 38.5897 670.42 39.3599 672.241C39.6444 673.28 39.8658 674.336 40.023 675.402C40.2357 676.124 41.2432 675.861 41.3688 675.242C41.5359 674.409 41.5189 673.549 41.3191 672.722C41.1193 671.896 40.7415 671.123 40.212 670.458C39.1341 669.07 38.0242 669.088 36.4555 668.916Z" fill="url(#paint8_linear_732_1361)"/>
<path d="M39.6243 677.887C38.9621 677.75 38.8383 678.767 39.4871 678.938C40.4445 679.071 41.3428 679.479 42.0732 680.112C42.6368 680.848 43.1418 681.626 43.5836 682.441C43.6349 682.516 43.7074 682.575 43.7918 682.609C43.8762 682.643 43.9688 682.651 44.0578 682.632C44.1469 682.613 44.2284 682.569 44.2921 682.504C44.3557 682.439 44.3987 682.356 44.4155 682.267C44.549 679.347 41.955 678.379 39.6243 677.887Z" fill="url(#paint9_linear_732_1361)"/>
<path d="M150.251 53.945C156.488 59.198 164.218 62.3578 172.348 62.9779C180.821 63.6612 190.496 63.1146 198.313 59.6162C201.619 58.0792 204.528 55.8021 206.813 52.9611C208.578 50.3915 209.491 47.332 209.423 44.2151C211.254 41.564 211.145 37.3823 210.789 34.3759C210.29 31.0413 208.811 27.9303 206.539 25.4387C201.592 19.605 195.024 15.372 187.667 13.2763C182.192 11.4907 176.502 10.4474 170.749 10.1742C166.835 9.69997 162.865 10.1975 159.188 11.6228C155.464 13.3771 152.227 16.0169 149.759 19.3115C147.291 22.6062 145.668 26.4553 145.031 30.5222C144.865 31.8905 144.934 33.277 145.236 34.6219C142.161 41.113 145.195 49.5447 150.251 53.945ZM208.289 40.2794C208.228 41.3059 207.835 42.2848 207.17 43.0686C206.504 43.8524 205.602 44.3987 204.599 44.6251C202.59 45.117 201.196 44.1878 199.297 43.9554C197.397 43.7231 196.441 44.912 195.908 46.6885C194.924 49.9136 192.573 53.453 188.774 50.9659C187.175 49.9273 186.246 47.1122 184.196 46.8662C182.529 46.6476 181.627 48.4788 180.999 49.7087C180.097 51.4852 179.249 53.658 177.063 54.1773C175.177 54.6282 173.469 53.2207 172.212 51.9908C170.954 50.7609 169.561 47.6861 167.524 46.9892C166.472 46.6339 165.639 47.1669 164.668 47.4949C162.482 48.2465 160.323 48.4514 158.833 46.3469C157.344 44.2424 156.824 41.2907 154.856 39.6098C154.232 39.1114 153.436 38.8805 152.643 38.9675C151.727 39.0049 150.818 38.7981 150.009 38.3682C149.199 37.9384 148.519 37.301 148.037 36.5214C147.729 35.9938 147.477 35.4349 147.286 34.8542C147.4 34.6362 147.428 34.3833 147.365 34.1455C147.301 33.9077 147.151 33.7023 146.944 33.5697C146.535 31.2068 146.718 28.7793 147.477 26.5046C148.742 23.0368 150.845 19.9357 153.599 17.4775C156.353 15.0193 159.672 13.2803 163.261 12.4154C166.786 11.7048 170.804 12.2924 174.343 12.675C177.754 13.0643 181.143 13.6253 184.497 14.3559C185.7 14.7249 186.888 15.1212 188.05 15.5175C195.156 17.9773 202.016 22.4869 206.212 28.855C208.366 32.2417 209.125 36.3314 208.33 40.2658L208.289 40.2794ZM147.135 45.2127C146.346 42.7389 146.095 40.1252 146.397 37.5463C146.612 37.8801 146.855 38.1955 147.122 38.4892C148.04 39.527 149.266 40.2451 150.62 40.5391C151.262 40.6757 152.082 40.5391 152.684 40.7031C154.05 41.1404 154.61 42.7665 155.13 43.9554C156.264 46.5929 157.398 49.4217 160.446 50.1733C162.091 50.4533 163.783 50.2443 165.311 49.572C166.158 49.285 166.458 48.957 167.237 49.572C168.016 50.1869 168.29 51.0479 168.782 51.6901C170.49 53.945 173.319 56.5824 176.352 56.3501C179.085 56.1314 180.821 53.9723 181.818 51.6081C182.119 50.8839 182.311 49.4763 182.898 48.957C184.169 47.8365 185.221 48.957 186 50.0366C186.628 50.9809 187.425 51.8009 188.351 52.4554C189.347 53.1531 190.546 53.5031 191.761 53.4512C192.976 53.3993 194.141 52.9485 195.074 52.1684C196.072 51.1677 196.845 49.9658 197.343 48.6428C197.466 47.9909 197.658 47.3541 197.917 46.7432C198.572 45.8003 199.625 46.2239 200.65 46.5656C201.9 47.057 203.255 47.2221 204.586 47.0452C205.918 46.8683 207.183 46.3552 208.261 45.5543C207.745 48.296 206.455 50.8329 204.544 52.8654C201.959 55.527 198.765 57.5202 195.238 58.6733C188.405 60.8734 181.286 61.0237 174.179 60.8188C166.966 60.5204 159.991 58.148 154.091 53.986C150.778 52.0098 148.304 48.8888 147.135 45.2127Z" fill="url(#paint10_linear_732_1361)"/>
<path d="M166.759 33.9657C171.962 37.7268 178.443 39.2746 184.784 38.2704C190.018 37.5597 192.983 32.5171 188.679 28.5814C183.786 24.1265 177.746 22.4593 171.269 22.1177C170.9 22.1177 170.913 22.6506 171.269 22.6916C175.775 23.1307 180.112 24.6342 183.923 27.0783C185.65 28.0863 187.137 29.4571 188.282 31.0959C188.498 31.4458 188.636 31.8377 188.688 32.2455C188.74 32.6532 188.704 33.0673 188.583 33.4601C187.694 32.0243 186.383 30.8981 184.83 30.2352C183.277 29.5724 181.557 29.4053 179.905 29.7567C179.092 29.9017 178.258 29.8757 177.456 29.6804C176.654 29.4851 175.901 29.1248 175.245 28.6224C174.381 28.0626 173.408 27.6945 172.389 27.5429C169.82 27.3516 168.399 30.153 165.857 30.276C165.67 30.2824 165.49 30.3443 165.338 30.4537C164.231 28.7045 164.258 26.7093 167.319 25.8757C167.45 25.8302 167.559 25.7367 167.623 25.6142C167.688 25.4917 167.704 25.3492 167.667 25.2156C167.631 25.082 167.545 24.9672 167.427 24.8944C167.309 24.8216 167.168 24.7962 167.032 24.8234C164.996 25.3564 163.507 26.0944 163.397 28.4038C163.288 30.7133 164.928 32.5991 166.759 33.9657ZM166.677 31.9432C168.044 31.8339 168.467 30.932 169.834 30.153C172.075 28.8685 173.319 29.5107 175.218 30.686C175.733 31.0632 176.312 31.3455 176.926 31.5196C179.113 32.0525 181.19 30.6313 183.39 31.2189C185.199 31.8492 186.783 32.9996 187.941 34.526C187.142 35.3555 186.106 35.9186 184.975 36.1385C181.134 36.8457 177.177 36.5731 173.469 35.3459C171.379 34.7139 169.388 33.7941 167.552 32.6128C167.233 32.415 166.931 32.1911 166.65 31.9432H166.677Z" fill="url(#paint11_linear_732_1361)"/>
<g clip-path="url(#clip0_732_1361)">
<path d="M257.79 29.8202C257.455 28.6995 256.931 27.6443 256.24 26.7002C255.732 26.0187 255.427 25.2075 255.36 24.3602C255.489 23.3909 255.83 22.462 256.36 21.6402C257.36 19.4702 257.55 16.8802 255.77 15.0402C254.77 14.0402 253.29 13.7602 252.24 12.8702C251.19 11.9802 252.81 9.73021 252.99 8.63021C253.201 7.50277 253.019 6.33696 252.472 5.32828C251.926 4.31961 251.05 3.52941 249.99 3.09021C248.893 2.60056 247.68 2.43071 246.49 2.60021C245.629 2.85644 244.813 3.24436 244.07 3.75021C242.239 1.99089 239.959 0.769598 237.48 0.220212C234.995 -0.19287 232.443 0.155742 230.16 1.22021C227.72 2.31021 225.99 4.68021 223.26 4.91021C220.53 5.14021 218.26 5.47021 216 7.06021C213.93 8.50021 212 10.3302 211.72 12.9502C211.55 14.2902 212.13 15.8102 211.72 17.0402C211.31 18.2702 209.63 19.1902 208.72 20.2602C207.956 21.1771 207.43 22.268 207.187 23.4365C206.945 24.6049 206.994 25.8151 207.33 26.9602C207.735 27.9483 208.359 28.8321 209.154 29.5455C209.948 30.2589 210.894 30.7835 211.92 31.0802C211.92 31.3135 211.94 31.5535 211.98 31.8002C211.906 33.3053 211.743 34.8046 211.49 36.2902C211.23 39.1002 211.17 41.9302 211.19 44.7502C211.044 47.5059 211.255 50.269 211.82 52.9702C212.35 54.9702 214.01 56.3802 215.67 57.5002C220.502 60.6894 226.045 62.637 231.81 63.1702C233.97 63.3702 236.69 63.4402 238.72 62.5802C240.75 61.7202 241.65 59.1202 242.44 57.3902C243.81 54.3902 244.89 51.2902 246.1 48.2102C247.31 45.1302 248.54 42.4202 249.46 39.3802C251.624 38.7825 253.609 37.6631 255.24 36.1202C256.77 34.6902 258.24 32.0202 257.79 29.8202ZM215.79 55.4802C214.514 54.6157 213.605 53.3076 213.24 51.8102C212.954 50.0818 212.817 48.3321 212.83 46.5802C212.7 43.5802 212.63 40.5802 212.71 37.5002C212.71 36.0402 212.98 34.5902 213.04 33.1302C213.078 32.5566 213.062 31.9806 212.99 31.4102C214.37 31.7802 215.78 31.9102 217.18 32.2402C217.38 32.2402 217.55 32.3402 217.72 32.3902C217.4 33.9205 217.223 35.4772 217.19 37.0402C217.02 39.0402 216.74 41.0402 216.63 43.0402C216.52 45.0402 216.31 47.2602 216.19 49.3702C216.07 51.4802 216.29 53.5902 216.1 55.6902L215.79 55.4802ZM216.96 56.3302C216.997 56.2819 217.022 56.2258 217.034 56.1661C217.046 56.1065 217.044 56.045 217.029 55.9862C217.013 55.9274 216.985 55.8728 216.945 55.8268C216.906 55.7807 216.856 55.7442 216.8 55.7202C217.39 56.0302 217.15 54.3702 217.14 53.8802C217.14 52.8202 217.14 51.7702 217.14 50.7102C217.14 48.5302 217.46 46.3602 217.57 44.1802C217.68 42.0002 217.89 39.8602 218.07 37.6902C218.21 36.0802 218.46 34.4202 218.46 32.7802C218.781 33.0562 219.04 33.397 219.22 33.7802C219.435 34.3427 219.699 34.8848 220.01 35.4002C220.756 36.4866 221.797 37.3367 223.01 37.8502C221.874 44.6767 221.206 51.5727 221.01 58.4902C219.598 57.8936 218.242 57.1706 216.96 56.3302ZM230.32 38.5002C229.607 40.2496 229.054 42.0604 228.67 43.9102C228.03 46.0902 227.72 48.2902 227.23 50.5002C226.84 52.2602 226.43 54.0202 226.07 55.7802C225.69 57.1904 225.399 58.6233 225.2 60.0702L224.2 59.7502C223.44 59.5002 222.68 59.2202 221.93 58.9202C222.34 55.3202 222.38 51.6302 222.62 48.0102C222.84 44.7602 223.56 41.3702 223.55 38.1002C224.413 38.3939 225.311 38.5754 226.22 38.6402C227.537 38.7604 228.863 38.7201 230.17 38.5202H230.33L230.32 38.5002ZM231.51 56.8302C231.033 58.2706 230.698 59.7544 230.51 61.2602C229.143 61.0741 227.79 60.7969 226.46 60.4302C227.24 57.2602 227.58 53.9002 228.19 50.7102C228.57 48.7102 228.78 46.7102 229.27 44.7702C229.659 42.7032 230.153 40.6572 230.75 38.6402C230.763 38.5991 230.76 38.5544 230.742 38.5154C230.723 38.4764 230.69 38.446 230.65 38.4302C230.978 38.3035 231.332 38.26 231.681 38.3037C232.03 38.3473 232.363 38.4767 232.65 38.6802C233.19 39.0302 233.65 39.6202 234.17 40.0002C234.847 40.47 235.571 40.8688 236.33 41.1902C235.33 44.6902 234.14 48.1902 233.07 51.6502C232.5 53.3602 232.02 55.1002 231.51 56.8302ZM231.58 61.3802C232.027 60.078 232.362 58.7398 232.58 57.3802C233.05 55.5502 233.58 53.7302 234.03 51.9002C234.95 48.4402 236.03 44.9002 236.79 41.4202C238.353 42.0075 240.028 42.2331 241.69 42.0802H241.99C240.63 45.6902 239.13 49.2702 237.72 52.8602C237.03 54.6202 236.4 56.4002 235.72 58.1502C235.26 59.2502 234.72 60.3602 234.35 61.5102H233.73C233.011 61.5076 232.294 61.4642 231.58 61.3802ZM244.24 47.9602C243.15 50.8502 242.08 53.7002 240.79 56.5202C240.16 57.8902 239.33 60.2402 237.9 60.9302C237.248 61.2113 236.55 61.3705 235.84 61.4002C238.353 55.0659 240.51 48.5957 242.3 42.0202C244.18 41.6602 245.72 40.5402 247.45 39.9002C246.53 42.6102 245.31 45.2302 244.24 47.9602ZM255.02 33.3602C253.54 35.5474 251.309 37.1163 248.75 37.7702C247.962 37.8014 247.184 37.9497 246.44 38.2102C245.37 38.6802 244.44 39.3502 243.29 39.7302C242.092 40.1147 240.829 40.2501 239.577 40.128C238.325 40.0059 237.111 39.6289 236.01 39.0202C235.041 38.3433 234.115 37.6052 233.24 36.8102C232.874 36.5737 232.46 36.4199 232.029 36.3595C231.597 36.299 231.157 36.3334 230.74 36.4602C228.34 36.7802 225.48 37.1502 223.26 35.9302C222.06 35.2138 221.185 34.0593 220.82 32.7102C220.671 31.9668 220.268 31.2985 219.68 30.8202C218.811 30.4184 217.867 30.207 216.91 30.2002C215.732 30.0469 214.566 29.813 213.42 29.5002C212.07 29.1102 210.42 28.5002 209.56 27.2502C209.121 26.4901 208.89 25.6279 208.89 24.7502C208.89 23.8725 209.121 23.0103 209.56 22.2502C210.56 20.4902 212.82 19.6302 213.56 17.8102C213.756 17.2238 213.794 16.596 213.67 15.9902C213.5 14.1202 213.39 12.4402 214.67 10.8702C215.557 9.79654 216.646 8.90826 217.877 8.25621C219.107 7.60416 220.454 7.20113 221.84 7.07021C224.08 6.83021 225.74 6.81021 227.33 5.07021C229.307 3.03069 231.929 1.73761 234.75 1.41021C238 1.02021 240.57 2.27021 243.04 4.20021C242.957 4.34236 242.917 4.50554 242.925 4.66993C242.933 4.83431 242.989 4.99284 243.085 5.12627C243.181 5.25969 243.314 5.36227 243.468 5.42155C243.622 5.48083 243.789 5.49426 243.95 5.46021C244.74 5.29021 245.32 4.65021 246.06 4.38021C246.639 4.21828 247.245 4.18001 247.839 4.26788C248.434 4.35575 249.003 4.56779 249.51 4.89021C252.37 6.67021 250.3 9.36021 249.73 11.7502C249.34 13.3802 250.34 14.1502 251.68 14.8402C252.75 15.3902 254.08 15.8402 254.74 16.9102C255.54 18.2402 255.06 19.7102 254.49 20.9902C253.68 22.8102 252.99 24.2802 253.85 26.2302C254.21 27.0602 254.74 27.7902 255.18 28.5802C255.599 29.3118 255.809 30.1442 255.788 30.987C255.767 31.8298 255.515 32.6506 255.06 33.3602H255.02Z" fill="url(#paint12_linear_732_1361)"/>
<path d="M232.63 30.3699C230.63 30.6299 228.03 31.6799 226.87 29.3099C226.33 28.2199 226.94 27.4599 226.81 26.3699C226.815 26.2332 226.792 26.0971 226.742 25.9698C226.692 25.8425 226.616 25.7268 226.52 25.6299C226.2 25.3299 225.64 25.3999 225.24 25.3599C224.241 25.3088 223.25 25.141 222.29 24.8599C220.98 24.4299 219.73 23.5799 219.76 22.0599C219.76 20.9399 220.64 20.2499 221.17 19.3799C221.243 19.2593 221.282 19.1209 221.282 18.9799C221.282 18.8388 221.243 18.7004 221.17 18.5799C220.42 17.5199 217.91 17.2599 219.01 15.4699C219.92 13.9899 222.1 13.6699 223.66 13.3499C223.97 13.2899 223.87 12.7799 223.56 12.8099C221.5 12.9999 218.78 13.2299 217.56 15.1799C217.323 15.5066 217.191 15.8972 217.18 16.3006C217.169 16.7039 217.281 17.1011 217.5 17.4399C217.823 17.9057 218.214 18.3204 218.66 18.6699C218.918 18.8429 219.189 18.9967 219.47 19.1299C218.723 19.8853 218.236 20.8591 218.08 21.9099C217.975 22.9458 218.284 23.9812 218.94 24.7899C219.555 25.5158 220.347 26.0704 221.24 26.3999C221.919 26.6408 222.63 26.7789 223.35 26.8099C224.01 26.8099 224.81 26.6099 225.44 26.6999C225.71 26.2699 225.74 26.3599 225.52 26.9599C225.431 27.3125 225.361 27.6697 225.31 28.0299C225.235 28.4767 225.235 28.933 225.31 29.3799C225.518 30.1972 226.02 30.9092 226.72 31.3799C228.47 32.6799 231.47 33.0199 233.04 31.2899C233.37 31.0199 233.14 30.2999 232.63 30.3699Z" fill="url(#paint13_linear_732_1361)"/>
<path d="M249.39 29.43C249.332 29.3386 249.248 29.2663 249.149 29.2222C249.05 29.1782 248.94 29.1644 248.833 29.1826C248.727 29.2007 248.628 29.25 248.549 29.3243C248.47 29.3986 248.415 29.4945 248.39 29.6C248.279 30.1612 248.206 30.7291 248.17 31.3C247.979 31.6618 247.704 31.9724 247.369 32.2056C247.033 32.4388 246.646 32.5878 246.24 32.64C245.1 32.79 245.03 32.5 243.94 31.97C243.81 31.91 243.76 31.74 243.59 31.7C243.425 31.6449 243.251 31.6262 243.078 31.6452C242.905 31.6642 242.739 31.7204 242.59 31.81C242.435 31.9152 242.297 32.0433 242.18 32.19L241.88 32.52C241.23 33.41 240.44 33.08 239.49 31.52C239.65 31.03 238.87 30.75 238.65 31.21C238.517 31.5294 238.453 31.8734 238.462 32.2194C238.471 32.5653 238.554 32.9054 238.704 33.2172C238.854 33.5289 239.069 33.8053 239.333 34.0282C239.598 34.251 239.907 34.4153 240.24 34.51C240.567 34.6464 240.925 34.6932 241.277 34.6458C241.628 34.5984 241.961 34.4583 242.24 34.24C242.546 34.0431 242.811 33.7884 243.02 33.49C243.117 33.4377 243.202 33.3663 243.27 33.28C244.36 34.53 246.79 34.49 248.2 33.91C250.13 33.15 250.24 31.1 249.39 29.43Z" fill="url(#paint14_linear_732_1361)"/>
<path d="M243.13 8.54996C242.55 6.23996 239.56 5.49996 237.44 5.48996C236.578 5.42227 235.72 5.66982 235.027 6.18664C234.334 6.70346 233.851 7.45441 233.67 8.29996C233.136 7.85323 232.456 7.61835 231.76 7.63996C230.878 7.74262 230.07 8.17922 229.5 8.85996C228.891 9.56968 228.535 10.4616 228.488 11.3955C228.441 12.3295 228.706 13.2526 229.24 14.02C229.4 14.26 229.82 14.09 229.71 13.8C229.443 13.1904 229.338 12.5223 229.404 11.8601C229.471 11.198 229.707 10.5642 230.09 10.02C230.25 9.78446 230.458 9.58481 230.7 9.43364C230.941 9.28247 231.212 9.18306 231.493 9.14171C231.775 9.10036 232.063 9.11795 232.338 9.19339C232.613 9.26882 232.869 9.40046 233.09 9.57997C233.3 9.69997 233.45 9.88997 233.69 10.01C233.786 10.0544 233.89 10.0773 233.995 10.0771C234.1 10.0769 234.205 10.0535 234.3 10.0087C234.395 9.9639 234.48 9.89869 234.547 9.81769C234.614 9.73669 234.663 9.64189 234.69 9.53996C234.95 8.53996 234.84 7.72996 236.05 7.17996C236.751 6.94724 237.505 6.92292 238.22 7.10996C239.728 7.34751 241.125 8.04617 242.22 9.10996C242.294 9.23064 242.413 9.31687 242.551 9.34969C242.689 9.38251 242.834 9.35922 242.955 9.28496C243.076 9.2107 243.162 9.09155 243.195 8.95371C243.228 8.81587 243.204 8.67064 243.13 8.54996Z" fill="url(#paint15_linear_732_1361)"/>
<path d="M247.48 18.6302C247.424 18.2626 247.296 17.9098 247.102 17.5926C246.908 17.2755 246.652 17.0003 246.35 16.7832C246.049 16.5661 245.706 16.4116 245.344 16.3286C244.982 16.2457 244.606 16.236 244.24 16.3002C243.86 16.3002 243.5 16.4702 243.13 16.5202L242.87 16.5802C242.856 16.5341 242.836 16.4903 242.81 16.4502C242.46 15.9102 242.65 15.1602 242.1 14.6602C240.88 13.5402 239.23 14.7202 238.1 15.3902C237.72 15.6202 238.1 16.1602 238.46 15.9602C239.06 15.6602 239.94 15.0102 240.63 15.1202C241.98 15.3302 241.41 16.2602 241.47 16.9202C241.53 17.4102 241.62 17.7402 242.1 17.9202C242.83 18.2602 243.72 17.7702 244.49 17.8402C247.07 18.0602 244.88 20.7402 244.16 21.7102C244.067 21.8194 244.011 21.9556 244.001 22.0988C243.992 22.242 244.028 22.3846 244.105 22.5056C244.183 22.6265 244.297 22.7195 244.431 22.7707C244.565 22.8219 244.712 22.8287 244.85 22.7902C246.6 22.4402 247.69 20.3002 247.48 18.6302Z" fill="url(#paint16_linear_732_1361)"/>
<path d="M233.24 21.5701C232.7 21.2201 231.24 21.4501 230.85 20.8801C230.46 20.3101 232.44 17.4901 233.3 17.6301C233.57 17.6301 233.66 17.2601 233.4 17.2201C232.997 17.1595 232.584 17.2083 232.206 17.3613C231.828 17.5143 231.498 17.766 231.25 18.0901C230.5 18.7901 229.5 19.7301 229.45 20.8301C229.38 22.3901 231.68 23.1001 232.94 22.9101C233.093 22.897 233.237 22.8357 233.352 22.735C233.467 22.6343 233.548 22.4994 233.581 22.35C233.615 22.2007 233.599 22.0445 233.538 21.9043C233.477 21.764 233.372 21.647 233.24 21.5701Z" fill="url(#paint17_linear_732_1361)"/>
</g>
<defs>
<linearGradient id="paint0_linear_732_1361" x1="106.519" y1="786.472" x2="213.325" y2="746.416" gradientUnits="userSpaceOnUse">
<stop stop-color="#FF9600"/>
<stop offset="1" stop-color="#FF007B"/>
</linearGradient>
<linearGradient id="paint1_linear_732_1361" x1="301.001" y1="706.186" x2="356.991" y2="706.186" gradientUnits="userSpaceOnUse">
<stop stop-color="#FF9600"/>
<stop offset="1" stop-color="#FF007B"/>
</linearGradient>
<linearGradient id="paint2_linear_732_1361" x1="36.5823" y1="655.638" x2="52.1757" y2="729.98" gradientUnits="userSpaceOnUse">
<stop stop-color="#FF9600"/>
<stop offset="1" stop-color="#FF007B"/>
</linearGradient>
<linearGradient id="paint3_linear_732_1361" x1="22.9556" y1="679.769" x2="27.6073" y2="701.946" gradientUnits="userSpaceOnUse">
<stop stop-color="#FF9600"/>
<stop offset="1" stop-color="#FF007B"/>
</linearGradient>
<linearGradient id="paint4_linear_732_1361" x1="41.4915" y1="691.708" x2="42.5693" y2="696.846" gradientUnits="userSpaceOnUse">
<stop stop-color="#FF9600"/>
<stop offset="1" stop-color="#FF007B"/>
</linearGradient>
<linearGradient id="paint5_linear_732_1361" x1="31.1798" y1="686.341" x2="32.6661" y2="693.426" gradientUnits="userSpaceOnUse">
<stop stop-color="#FF9600"/>
<stop offset="1" stop-color="#FF007B"/>
</linearGradient>
<linearGradient id="paint6_linear_732_1361" x1="21.3389" y1="682.438" x2="22.2668" y2="686.861" gradientUnits="userSpaceOnUse">
<stop stop-color="#FF9600"/>
<stop offset="1" stop-color="#FF007B"/>
</linearGradient>
<linearGradient id="paint7_linear_732_1361" x1="17.0823" y1="667.452" x2="19.4246" y2="678.619" gradientUnits="userSpaceOnUse">
<stop stop-color="#FF9600"/>
<stop offset="1" stop-color="#FF007B"/>
</linearGradient>
<linearGradient id="paint8_linear_732_1361" x1="34.1465" y1="665.702" x2="36.458" y2="676.722" gradientUnits="userSpaceOnUse">
<stop stop-color="#FF9600"/>
<stop offset="1" stop-color="#FF007B"/>
</linearGradient>
<linearGradient id="paint9_linear_732_1361" x1="41.2191" y1="677.501" x2="42.3605" y2="682.943" gradientUnits="userSpaceOnUse">
<stop stop-color="#FF9600"/>
<stop offset="1" stop-color="#FF007B"/>
</linearGradient>
<linearGradient id="paint10_linear_732_1361" x1="143.992" y1="36.6171" x2="211.063" y2="36.6171" gradientUnits="userSpaceOnUse">
<stop stop-color="#FF9600"/>
<stop offset="1" stop-color="#FF007B"/>
</linearGradient>
<linearGradient id="paint11_linear_732_1361" x1="163.384" y1="30.3307" x2="190.756" y2="30.3307" gradientUnits="userSpaceOnUse">
<stop stop-color="#FF9600"/>
<stop offset="1" stop-color="#FF007B"/>
</linearGradient>
<linearGradient id="paint12_linear_732_1361" x1="207" y1="31.6402" x2="257.86" y2="31.6402" gradientUnits="userSpaceOnUse">
<stop stop-color="#FF9600"/>
<stop offset="1" stop-color="#FF007B"/>
</linearGradient>
<linearGradient id="paint13_linear_732_1361" x1="217.13" y1="22.6499" x2="233.2" y2="22.6499" gradientUnits="userSpaceOnUse">
<stop stop-color="#FF9600"/>
<stop offset="1" stop-color="#FF007B"/>
</linearGradient>
<linearGradient id="paint14_linear_732_1361" x1="238.49" y1="31.91" x2="249.91" y2="31.91" gradientUnits="userSpaceOnUse">
<stop stop-color="#FF9600"/>
<stop offset="1" stop-color="#FF007B"/>
</linearGradient>
<linearGradient id="paint15_linear_732_1361" x1="228.5" y1="9.81996" x2="243.15" y2="9.81996" gradientUnits="userSpaceOnUse">
<stop stop-color="#FF9600"/>
<stop offset="1" stop-color="#FF007B"/>
</linearGradient>
<linearGradient id="paint16_linear_732_1361" x1="237.98" y1="18.5202" x2="247.51" y2="18.5202" gradientUnits="userSpaceOnUse">
<stop stop-color="#FF9600"/>
<stop offset="1" stop-color="#FF007B"/>
</linearGradient>
<linearGradient id="paint17_linear_732_1361" x1="229.47" y1="20.0601" x2="233.62" y2="20.0601" gradientUnits="userSpaceOnUse">
<stop stop-color="#FF9600"/>
<stop offset="1" stop-color="#FF007B"/>
</linearGradient>
<clipPath id="clip0_732_1361">
<rect width="50.86" height="63.29" fill="white" transform="translate(207)"/>
</clipPath>
</defs>
</svg>
