<svg width="350" height="849" viewBox="0 0 350 849" fill="none" xmlns="http://www.w3.org/2000/svg">
<path d="M282.199 64.2395C282.199 59.6153 281.552 54.8637 278.678 51.0774C276.078 47.4889 272.911 44.3474 269.302 41.7759C268.324 41.1016 267.279 40.5294 266.184 40.0683H266.11H265.982C263.981 39.1768 261.734 39.0008 259.619 39.5698C258.22 39.9285 256.914 40.5831 255.79 41.4895C255.124 41.9799 254.624 42.6629 254.359 43.4462C254.093 44.2295 254.075 45.0755 254.305 45.8698C253.812 45.8635 253.319 45.8954 252.831 45.9652C251.024 46.2453 249.292 46.8874 247.74 47.8531C243.985 49.8471 240.379 52.0956 236.37 53.538C234.497 54.1095 232.713 54.9376 231.067 55.9986C229.285 57.2607 227.61 58.5971 225.764 59.7001C223.748 60.9301 221.617 61.9602 219.401 62.7759C217.915 63.1954 216.587 64.044 215.582 65.2153C215.51 65.297 215.472 65.4033 215.476 65.5122C214.84 65.9468 214.316 66.5263 213.947 67.203C213.578 67.8797 213.375 68.6343 213.355 69.4046C213.228 71.388 213.419 73.3819 213.355 75.3759C213.18 77.5278 213.138 79.6884 213.228 81.8456C213.205 83.3488 213.678 84.8176 214.575 86.0244C215.794 87.4137 217.969 88.0395 219.729 88.3683C224.166 89.0645 228.657 89.3485 233.146 89.2168C238.194 89.2168 243.254 89.2168 248.302 89.1213C253.075 89.0259 257.847 88.8137 262.578 88.3365C267.043 87.8804 271.805 87.785 276.122 86.5122C279.972 85.3668 281.107 81.8349 281.626 78.1546C282.144 73.5355 282.336 68.8856 282.199 64.2395ZM258.038 41.8713C259.804 40.9303 261.857 40.6808 263.797 41.1713C267.372 41.9137 270.416 44.7668 272.919 47.238C275.216 49.3565 277.138 51.8489 278.604 54.6092L278.466 54.535C277.894 54.159 277.24 53.9245 276.56 53.8507C275.88 53.777 275.191 53.8661 274.552 54.1107C274.027 54.3024 273.545 54.5959 273.133 54.9745C272.722 55.3531 272.39 55.8093 272.155 56.3168C272.027 56.5703 271.917 56.8326 271.826 57.1016C270.999 55.288 268.74 53.9198 267.234 52.944C263.904 50.8228 259.81 50.2607 256.935 47.3334C256.303 46.7075 255.849 45.924 255.62 45.0638C255.787 44.396 256.087 43.769 256.503 43.2203C256.919 42.6717 257.441 42.2128 258.038 41.8713ZM225.244 61.641C228.596 59.5834 231.502 56.9213 235.31 55.7971C238.483 54.8411 241.494 53.4108 244.24 51.5547C245.788 50.5471 247.422 49.6031 248.938 48.6168C250.307 47.7577 252.693 46.4319 254.581 46.6547C254.933 47.4084 255.435 48.083 256.055 48.638C257.431 49.8769 258.964 50.9289 260.616 51.7668C262.493 52.7107 264.604 53.2834 266.375 54.3971C267.785 55.2774 271.678 57.6956 270.214 59.7001C269.486 60.367 268.539 60.7443 267.552 60.7607C265.982 61.0153 264.37 61.1637 262.8 61.3016C257.954 61.7259 253.085 61.9274 248.249 62.4683C243.413 63.0092 238.523 63.391 233.634 63.6244C229.307 63.8365 224.863 63.6243 220.535 63.9743C222.191 63.3839 223.772 62.6008 225.244 61.641ZM216.632 66.944C218.128 66.0319 220.143 66.1168 221.829 66.0531C223.951 65.9789 225.976 65.9577 228.044 65.8516C232.181 65.6289 236.317 65.3743 240.432 64.9713C244.547 64.5683 248.397 64.0168 252.396 63.6349C256.394 63.2531 260.616 63.0728 264.71 62.5743C266.916 62.3198 270.363 62.3092 271.667 60.2304C272.194 62.582 272.528 64.9728 272.664 67.3789C272.669 67.4424 272.669 67.5063 272.664 67.5698C271.226 67.416 269.775 67.416 268.337 67.5698C266.191 67.6 264.049 67.7522 261.92 68.0259C256.394 68.7471 251.091 70.444 245.481 70.6456C239.87 70.8471 234.451 69.4471 228.872 69.1395C224.078 68.7582 219.273 69.736 215.01 71.9607C215.01 70.1683 214.946 67.9728 216.632 66.944ZM229.985 70.4334C235.288 70.9849 240.454 72.0986 245.894 71.8546C251.07 71.6319 255.822 69.6062 260.913 69.044C263.022 68.7542 265.147 68.6018 267.276 68.588C269.113 68.4639 270.958 68.5314 272.781 68.7895C272.781 69.9774 272.781 71.1652 272.876 72.3531C272.876 73.0107 272.993 73.6789 273.067 74.3577C268.294 74.7925 263.522 73.6046 258.685 74.0713C253.297 74.6016 248.344 77.4228 242.893 77.6137C237.091 77.8152 231.407 76.8077 225.701 75.8955C223.664 75.5668 221.564 74.9304 219.485 75.2168C217.755 75.4364 216.115 76.1137 214.734 77.1789C214.861 75.588 214.967 73.9971 215.01 72.4274C219.773 70.5865 224.906 69.9031 229.985 70.4334ZM214.713 83.0653C214.436 81.3101 214.411 79.5245 214.638 77.7622C215.466 77.5607 216.187 77.1365 217.014 76.9031C218.28 76.5045 219.601 76.3076 220.928 76.3198C223.576 76.5846 226.205 77.0203 228.797 77.6243C233.804 78.4728 239.191 79.2683 244.272 78.6849C249.352 78.1016 254.146 75.3546 259.375 75.0365C263.978 74.7501 268.56 76.0334 273.163 75.694C273.178 76.0049 273.178 76.3165 273.163 76.6274C272.696 80.9971 268.528 81.6971 264.943 82.2062C261.358 82.7153 258.06 82.9486 254.581 83.1925C250.985 83.5335 247.372 83.6363 243.763 83.5001C240.294 83.2986 236.837 83.1395 233.369 82.9274C230.054 82.6817 226.727 82.664 223.41 82.8744C220.519 83.1546 217.612 83.2184 214.713 83.0653ZM280.216 68.6092C280.314 72.6495 279.887 76.6855 278.943 80.6153C278.307 82.8107 277.511 84.0516 275.231 84.7198C273.09 85.2873 270.904 85.6706 268.697 85.8653C260.616 86.7668 252.619 87.4031 244.484 87.594C240.432 87.6789 236.381 87.7213 232.329 87.7213C228.225 87.7213 223.728 87.8486 219.708 86.9365C217.841 86.5228 215.879 85.8759 215.041 84.1259C220.27 84.6137 225.563 84.0622 230.823 84.1259C236.922 84.2107 243.052 84.9955 249.161 84.7092C255.115 84.4334 261.054 83.8855 266.979 83.0653C269.154 82.7683 271.508 82.2486 273.025 80.5198C273.635 79.7327 274.077 78.8285 274.324 77.8633C274.57 76.8981 274.615 75.8926 274.457 74.9092C274.255 72.8834 274.17 70.8365 273.979 68.8107C274.066 68.6977 274.106 68.556 274.093 68.4142C274.079 68.2725 274.012 68.1413 273.905 68.0471C273.841 67.4001 273.757 66.7531 273.661 66.1062C273.403 64.1196 272.941 62.1649 272.282 60.2728C273.343 58.841 272.876 56.9001 274.075 55.5213C274.593 54.9843 275.288 54.6538 276.031 54.5914C276.775 54.5289 277.515 54.7388 278.116 55.1819C279.06 55.7865 279.007 56.635 279.622 57.4834C280.502 61.1001 280.279 64.9289 280.216 68.6092Z" fill="url(#paint0_linear_732_1359)"/>
<g clip-path="url(#clip0_732_1359)">
<path d="M338.45 580.872C338.36 579.595 337.956 578.36 337.273 577.277C336.467 575.93 335.077 575.283 333.826 574.435C332.176 573.37 330.31 572.685 328.364 572.43C327.039 572.07 325.682 571.839 324.312 571.741C320.674 571.559 317.027 571.848 313.462 572.6C306.133 574.01 299.008 576.326 292.25 579.494C285.505 582.675 279.141 586.133 273.87 591.489C271.594 593.76 269.718 596.399 268.323 599.295C267.177 601.745 265.968 604.8 266.594 607.547C266.695 608.126 266.918 608.678 267.249 609.164C267.58 609.651 268.011 610.061 268.514 610.368C268.059 610.722 267.636 611.116 267.252 611.545C265.958 612.839 263.985 614.398 263.242 616.074C262.971 616.54 262.894 617.095 263.029 617.617C263.164 618.139 263.5 618.587 263.964 618.863C265.226 619.489 267.326 618.577 268.514 618.153C269.53 617.625 270.596 617.199 271.695 616.88C271.001 618.605 271.001 620.532 271.695 622.257C271.931 622.781 272.294 623.237 272.752 623.583C273.21 623.93 273.747 624.156 274.315 624.241C274.051 625.095 273.99 625.999 274.137 626.881C274.285 627.763 274.636 628.599 275.164 629.321C274.903 629.686 274.745 630.115 274.708 630.562C274.592 631.943 274.919 633.324 275.641 634.507C277.041 636.925 279.141 639.524 282.142 639.683C285.536 639.863 289.344 638.898 292.632 638.113C296.482 637.201 300.247 635.992 304.023 634.836C307.798 633.68 311.648 632.715 315.403 631.304C319.158 629.894 323.071 628.292 326.847 626.616C333.953 623.435 341.218 619.659 346.532 613.889C347.784 612.707 348.786 611.286 349.48 609.71C349.95 607.928 349.987 606.058 349.586 604.259C349.003 600.992 347.465 598.478 344.485 597.45C344.718 596.937 344.906 596.404 345.047 595.859C345.439 594.474 345.457 593.01 345.1 591.616C344.673 590.47 344.016 589.424 343.17 588.541C343.842 588.153 344.422 587.623 344.867 586.987C345.313 586.351 345.613 585.625 345.747 584.86C346.171 580.554 341.642 580.724 338.45 580.872ZM270.105 600.398C271.378 597.651 273.111 595.14 275.227 592.974C279.894 588.095 285.579 584.775 291.614 581.869C298.098 578.712 304.914 576.286 311.935 574.636C312.783 574.435 313.632 574.254 314.47 574.095C316.137 573.875 317.816 573.762 319.497 573.756C322.453 573.647 325.412 573.832 328.332 574.307C329.845 574.574 331.288 575.144 332.574 575.983C333.868 576.885 335.258 577.627 335.915 579.165C336.296 579.896 336.446 580.725 336.346 581.543C336.246 582.361 335.899 583.13 335.353 583.747C334.326 585.117 333.1 586.325 331.715 587.331C329.148 589.095 326.454 590.666 323.655 592.03C318.088 594.879 312.362 597.404 306.505 599.592C300.48 601.851 294.647 604.45 288.612 606.571C285.706 607.631 282.72 608.458 279.682 609.042C278.015 609.381 276.311 609.509 274.612 609.424C273.091 609.51 271.566 609.334 270.105 608.904C267.029 607.525 269.097 602.615 270.105 600.398ZM282.694 627.581C284.893 626.908 286.897 625.714 288.538 624.103C289.352 623.479 290.068 622.735 290.659 621.897C291.662 622.015 292.678 621.935 293.65 621.663L293.862 621.6C293.195 622.814 292.352 623.922 291.359 624.888C289.48 626.449 287.283 627.582 284.921 628.207C282.864 628.833 280.679 629.798 278.558 629.268C277.742 629.172 276.994 628.764 276.473 628.129C275.951 627.494 275.694 626.683 275.758 625.863C275.758 625.322 275.758 624.803 275.758 624.262C276.047 624.229 276.334 624.176 276.617 624.103C277.158 623.965 277.677 623.721 278.208 623.562C277.667 626.383 279.682 628.292 282.694 627.581ZM278.632 623.466C279.106 623.352 279.604 623.393 280.053 623.583C280.833 624.099 281.723 624.425 282.652 624.538C283.812 624.494 284.928 624.078 285.833 623.35C286.324 622.995 286.785 622.601 287.212 622.172C287.52 621.854 287.817 621.186 288.198 620.815C288.534 621.055 288.889 621.268 289.259 621.451C289.047 621.685 288.845 621.918 288.602 622.141C287.587 623.082 286.525 623.97 285.42 624.803C283.108 626.51 278.208 627.91 278.632 623.466ZM347.698 606.157C347.955 607.694 347.601 609.269 346.712 610.548C345.846 611.764 344.888 612.913 343.848 613.985C339.288 618.651 333.094 621.928 327.208 624.591C321.644 627.243 315.932 629.573 310.1 631.569C307.13 632.524 304.086 633.15 301.127 634.168C298.168 635.186 295.464 636.035 292.579 636.766C290.776 637.221 288.949 637.575 287.106 637.827C285.501 638.198 283.85 638.334 282.206 638.23C279.82 637.838 275.238 633.075 276.309 630.244C278.186 631.165 280.352 631.307 282.333 630.636C287.403 629.162 293.926 626.394 295.803 621.091C298.635 624.75 305.221 624.028 308.976 622.491C311.786 621.345 316.782 618.11 316.941 614.494C320.462 617.241 325.638 615.947 329.467 614.08C331.444 613.097 333.075 611.536 334.144 609.604C334.783 608.415 335.07 607.069 334.971 605.722C337.389 606.231 339.288 606.444 341.674 604.8C343.552 603.506 345.185 601.83 344.315 599.581C345.08 599.988 345.74 600.565 346.245 601.268C347.123 602.754 347.622 604.433 347.698 606.157ZM304.458 619.574C305.877 619.928 307.375 619.782 308.7 619.16C310.471 618.312 312.402 616.753 312.826 614.791C313.775 614.56 314.672 614.149 315.467 613.581C315.478 614.537 315.181 615.471 314.618 616.244C314.016 617.049 313.302 617.763 312.497 618.365C310.973 619.618 309.258 620.617 307.417 621.324C303.98 622.575 299.091 622.575 295.877 620.666C296.183 620.461 296.474 620.234 296.747 619.988C297.142 619.588 297.497 619.151 297.808 618.683C298.306 618.047 298.359 617.824 299.218 617.951C300.16 618.176 301.124 618.297 302.092 618.312C302.788 618.887 303.592 619.317 304.458 619.574ZM303.397 618.078C304.447 617.822 305.439 617.372 306.324 616.753C307.385 616.021 307.979 614.631 309.336 614.727C310.153 614.727 310.832 614.918 311.564 614.939C311.477 615.18 311.359 615.408 311.214 615.618C310.326 616.848 309.109 617.804 307.703 618.375C306.908 618.625 306.071 618.708 305.242 618.619C304.583 618.551 303.94 618.368 303.344 618.078H303.397ZM316.623 612.595C316.938 612.242 317.222 611.863 317.471 611.46C317.853 610.835 317.842 610.612 318.415 610.665C319.656 611.344 320.738 612.298 322.202 612.425C325.01 612.27 327.698 611.231 329.88 609.456C330.21 609.097 330.441 608.658 330.548 608.183C330.575 607.798 330.575 607.412 330.548 607.027C331.284 606.887 331.998 606.648 332.67 606.316C333.01 606.139 333.34 605.94 333.656 605.722C333.603 606.412 333.539 607.462 333.55 607.419C333.293 608.542 332.727 609.571 331.917 610.389C330.757 611.761 329.252 612.797 327.558 613.391C324.047 614.61 320.314 615.597 316.952 613.666C316.909 613.326 316.816 612.993 316.676 612.68C316.646 612.645 316.61 612.617 316.57 612.595H316.623ZM319.805 610.835C320.819 610.971 321.851 610.887 322.83 610.588C323.809 610.29 324.713 609.784 325.479 609.106C326.677 608.045 327.112 606.985 328.926 607.144H329.477C329.483 607.228 329.483 607.313 329.477 607.398C329.265 608.841 328.417 609.18 327.186 609.763C325.927 610.464 324.562 610.954 323.145 611.216C321.992 611.277 320.838 611.14 319.73 610.813L319.805 610.835ZM334.929 605.107C334.899 604.995 334.86 604.885 334.812 604.778C335.034 604.565 335.243 604.339 335.438 604.1C336.085 603.325 336.498 602.116 337.612 601.819C338.27 601.65 339.033 601.819 339.733 601.607C340.931 601.319 342.03 600.714 342.915 599.857C343.202 602.095 341.664 603.538 339.733 604.545C338.193 605.19 336.501 605.385 334.855 605.107H334.929ZM343.647 592.974C343.73 594.896 343.107 596.782 341.897 598.277C340.433 600.144 338.715 599.847 336.689 600.313C335.406 600.61 334.908 601.713 334.08 602.647C333.504 603.396 332.782 604.02 331.958 604.483C331.135 604.946 330.226 605.238 329.286 605.341C327.748 605.404 326.741 604.619 325.606 605.924C324.302 607.43 323.22 608.703 321.077 608.968C319.826 609.116 318.542 608.151 317.376 608.533C316.008 608.978 315.414 611.068 314.289 611.906C312.592 613.178 311.108 613.094 309.145 612.775C308.733 612.669 308.298 612.696 307.903 612.855C307.508 613.013 307.174 613.294 306.95 613.656C305.824 615.18 304.186 616.246 302.336 616.657C301.371 616.826 300.378 616.746 299.452 616.424C299.085 616.294 298.693 616.247 298.306 616.286C297.182 616.498 296.779 617.76 295.973 618.407C294.611 619.478 292.942 620.084 291.211 620.136C291.12 620.056 291.007 620.008 290.887 619.996C290.767 619.985 290.646 620.011 290.542 620.072C289.567 619.807 288.941 618.757 287.891 619.012C286.533 619.33 285.642 621.271 284.518 622.024C284.029 622.379 283.45 622.587 282.847 622.625C282.244 622.662 281.643 622.527 281.114 622.236C280.63 621.949 280.098 621.751 279.544 621.653C278.271 621.568 277.126 622.3 275.917 622.544C275.548 622.648 275.161 622.67 274.783 622.607C274.405 622.545 274.045 622.399 273.73 622.181C273.414 621.963 273.151 621.678 272.959 621.347C272.767 621.015 272.651 620.645 272.618 620.263C272.448 619.394 272.215 617.675 272.788 616.901C273.7 617.103 274.273 617.803 275.132 618.322C275.796 618.739 276.556 618.98 277.339 619.021C278.123 619.061 278.903 618.901 279.608 618.556C281.24 617.782 282.709 616.702 283.935 615.374C284.671 614.628 285.474 613.95 286.332 613.348C288.071 612.213 289.238 613.03 290.998 613.221C292.668 613.382 294.346 613.01 295.792 612.16C297.914 610.909 299.589 608.565 302.008 607.918C303.853 607.43 305.794 607.833 307.65 607.377C309.772 606.758 311.705 605.617 313.271 604.057C314.046 603.245 314.953 602.571 315.955 602.063C317.238 601.618 318.558 601.288 319.9 601.077C321.855 600.792 323.746 600.171 325.489 599.242C327.377 598.054 328.777 596.06 330.856 595.148C331.821 594.745 332.861 594.862 333.836 594.544C334.753 594.185 335.573 593.618 336.233 592.889C337.242 591.832 338.421 590.954 339.723 590.291C340.412 589.962 341.123 589.665 341.844 589.325C342.48 590.513 343.435 591.478 343.573 592.974H343.647ZM341.515 587.48C339.967 588.435 338.164 588.859 336.668 589.919C335.173 590.98 334.261 592.55 332.298 592.921C330.799 593.104 329.367 593.654 328.13 594.522C326.752 595.519 325.659 596.866 324.238 597.8C321.12 599.921 316.877 599.359 313.78 601.522C312.55 602.392 311.564 603.559 310.302 604.397C308.553 605.56 306.482 606.143 304.383 606.062C302.947 605.943 301.502 606.128 300.141 606.603C298.549 607.483 297.067 608.552 295.729 609.785C295.022 610.377 294.204 610.822 293.322 611.091C292.44 611.361 291.513 611.45 290.595 611.354C288.952 611.142 287.795 610.665 286.183 611.439C283.15 612.924 281.368 616.742 277.942 617.41C275.821 617.824 274.973 615.819 273.159 615.395C271.685 615.211 270.192 615.524 268.917 616.286C267.931 616.834 266.852 617.194 265.735 617.347C265.109 617.347 264.367 618.301 265.162 616.159C265.3 615.766 265.83 615.342 266.095 615.013C266.668 614.313 267.252 613.624 267.856 612.892C268.38 612.184 268.998 611.549 269.691 611.004C270.568 611.242 271.467 611.388 272.374 611.439C275.837 611.709 279.321 611.423 282.694 610.591C289.736 608.947 296.609 605.892 303.217 603.007C310.344 599.9 317.609 597.142 324.514 593.515C327.597 592.035 330.555 590.308 333.359 588.35C335.13 587.003 337.421 584.945 338.185 582.654C339.556 582.556 340.934 582.623 342.289 582.856C345.492 583.683 343.042 586.483 341.515 587.48Z" fill="url(#paint1_linear_732_1359)"/>
</g>
<g clip-path="url(#clip1_732_1359)">
<path d="M11.7409 680.909C12.8758 679.148 13.6182 677.282 15.1879 675.829C16.2485 674.821 17.6591 674.142 18.5606 672.922C19.502 671.394 20.3451 669.807 21.0849 668.171C22.9197 664.936 26.3242 663.303 28.5091 660.386C29.3568 659.25 30.0687 658.018 30.6303 656.716C31.2018 654.959 31.9111 653.25 32.7515 651.604C34.8727 648.327 38.9136 646.545 41.4379 643.586C43.5061 641.179 45.2879 638.58 45.6803 635.356C46.0477 632.124 45.5155 628.854 44.1424 625.906C43.8667 625.322 43.5909 624.75 43.2833 624.209C44.5291 623.092 45.6852 621.879 46.7409 620.582C48.2819 619.035 49.6575 617.333 50.8455 615.501C51.4394 614.441 52.0015 613.444 52.6591 612.457C53.0267 612.009 53.304 611.494 53.4757 610.941C53.656 609.965 53.1151 609.541 52.4151 609.191L53.4757 608.077C55.8584 605.841 57.8863 603.256 59.4894 600.409C60.2424 598.913 61.8121 596.166 60.3909 594.544C59.1182 593.112 55.8091 593.271 54.2924 594.013C51.747 595.244 50.4636 599.104 49.0848 601.353C47.7061 603.601 46.4121 605.489 45.1076 607.568C45.9985 605.585 46.8894 603.612 47.8333 601.66C49.319 598.659 50.3894 595.469 51.0152 592.179C51.4182 589.962 51.6303 587.936 48.7879 587.597C46.1894 587.342 44.6409 589.336 44.2379 591.638C43.75 594.406 43.3045 597.1 42.6576 599.815C41.4485 599.465 39.953 599.295 39.0197 600.091C37.6939 601.215 37.0364 603.983 36.453 605.542C35.6894 607.663 35.053 609.689 34.4591 611.8C33.8231 613.577 33.4342 615.432 33.303 617.315C30.1567 617.218 27.0513 618.048 24.3727 619.701C21.8505 621.296 19.9725 623.73 19.0697 626.574C18.4758 628.122 18.0091 629.756 17.5106 631.304C16.7705 633.176 15.5305 634.809 13.9258 636.024C11.5288 638.145 9.68335 640.054 8.99395 643.236C8.30456 646.418 8.42121 649.854 7.02121 652.941C5.86515 655.518 4.07274 657.83 3.69092 660.704C3.22425 664.194 3.41513 667.535 2.33331 670.96C1.38937 673.972 -0.137897 676.762 -0.0848671 679.997C-0.0848671 682.118 0.63635 685.215 2.70453 686.36C4.77271 687.506 7.31817 685.798 8.83483 684.324C9.93368 683.303 10.909 682.157 11.7409 680.909ZM52.0439 611.291C51.6986 611.917 51.2861 612.504 50.8136 613.041C49.9889 614.488 49.0452 615.865 47.9924 617.156C46.9318 618.291 45.8076 619.277 44.7576 620.338C44.0173 621.165 43.2083 621.927 42.3394 622.618C42.084 622.249 41.8078 621.895 41.5121 621.557C42.2121 621.218 42.5727 620.613 43.0606 619.882C44.047 618.535 45.1818 617.251 46.2424 615.979C48.0349 613.857 49.9651 611.8 51.8954 609.774C52.0469 609.993 52.1408 610.247 52.1686 610.512C52.1964 610.777 52.1571 611.045 52.0545 611.291H52.0439ZM51.9485 599.571C52.5271 598.25 53.2682 597.007 54.1545 595.869C55.0667 594.947 58.0682 594.522 59.1606 595.477C60.8576 596.951 57.3364 601.841 56.3076 603.113C54.5788 605.319 52.4682 607.207 50.5485 609.254C48.6288 611.301 46.5712 613.274 44.747 615.416C43.3152 617.113 42.0106 618.895 40.6318 620.635C40.2979 620.331 39.9435 620.051 39.5712 619.797L39.9424 619.033C40.4409 618.365 41.2045 617.113 41.2788 616.912C41.8833 615.756 42.5303 614.61 43.2303 613.507C44.6409 611.269 45.9666 608.979 47.4091 606.762C48.8515 604.545 50.5697 602.053 51.9591 599.571H51.9485ZM45.4364 594.385C45.6697 592.932 45.5955 591.447 46.497 590.206C47.2076 589.145 48.6182 588.466 49.6788 589.548C50.4955 590.418 50.103 591.404 49.8803 592.582C49.6055 593.976 49.2514 595.353 48.8197 596.707C47.7946 599.59 46.5757 602.4 45.1712 605.118C43.9303 607.759 42.6894 610.421 41.3848 613.019C40.2309 614.941 39.2479 616.961 38.447 619.054L37.8106 618.768L37.5242 618.662C40.4833 615.247 41.6288 610.177 42.7 605.935C43.3576 603.325 44.1742 600.727 44.7576 598.086C44.9591 596.877 45.2348 595.625 45.4364 594.385ZM36.8985 608.671C37.3439 607.186 37.9061 605.754 38.4894 604.322C38.9773 603.156 39.3909 601.374 40.6636 600.759C41.2731 600.566 41.9151 600.497 42.5515 600.557L42.4879 600.844C41.703 603.909 41.1091 607.016 40.1227 610.029C39.574 611.86 38.9117 613.656 38.1394 615.406C37.6833 616.371 37.0788 617.251 36.6333 618.216C36.1667 617.959 35.6721 617.756 35.1591 617.612C35.1631 617.577 35.1631 617.541 35.1591 617.506C35.5072 614.521 36.0852 611.567 36.8879 608.671H36.8985ZM4.38031 684.685C2.6091 684.472 2.14243 681.651 2.08939 680.283C1.99394 677.695 3.09696 675.425 3.96666 673.06C5.59999 674.842 7.84847 677.303 10.3303 677.186C10.4709 677.204 10.6131 677.166 10.7255 677.08C10.8378 676.993 10.9113 676.865 10.9295 676.725C10.9478 676.584 10.9095 676.442 10.823 676.33C10.7364 676.217 10.6088 676.144 10.4682 676.125C9.3642 675.838 8.29668 675.425 7.28636 674.895C6.16621 674.206 5.10228 673.429 4.10454 672.572L4.16817 672.413C5.00255 669.963 5.50898 667.413 5.67425 664.83C5.7697 663.504 5.67425 662.136 5.87577 660.81C6.17717 659.349 6.72597 657.95 7.49849 656.674L7.94393 655.836C8.86289 657.465 10.1356 658.867 11.6683 659.939C13.201 661.011 14.9546 661.726 16.8 662.03C16.8344 662.038 16.8705 662.032 16.9007 662.014C16.931 661.996 16.9532 661.967 16.9627 661.933C16.9722 661.899 16.9683 661.862 16.9519 661.831C16.9354 661.8 16.9076 661.776 16.8742 661.765C14.7753 660.787 12.8764 659.428 11.2742 657.756C10.6803 657.194 10.2667 656.483 9.70454 655.889C9.32272 655.486 8.90908 655.104 8.50605 654.712C9.27308 653.221 9.8231 651.628 10.1394 649.982C10.5742 647.372 10.3727 644.679 11.2742 642.112C11.73 640.904 12.4555 639.815 13.3955 638.93C13.3303 639.835 13.4642 640.744 13.7879 641.592C14.5305 643.2 15.546 644.668 16.7894 645.93C19.1227 648.221 23.0258 649.409 26.1864 649.822C26.7061 649.886 26.7485 649.112 26.303 648.963C23.3439 647.956 19.5894 646.715 17.4682 644.307C16.4759 643.187 15.6115 641.96 14.8909 640.648C14.5648 639.867 14.3093 639.057 14.1273 638.23C15.4893 637.148 16.7432 635.937 17.8712 634.613C19.3349 632.672 19.7909 630.138 20.5227 627.815C20.5677 628.21 20.6458 628.6 20.7561 628.982C21.2015 630.672 22.0829 632.215 23.3121 633.457C25.6879 635.801 29.6757 637.827 33.0909 637.753C33.5894 637.753 33.7485 636.947 33.2076 636.862C29.7975 636.225 26.655 634.585 24.1818 632.153C23.0201 630.869 22.1963 629.316 21.7849 627.635C21.5939 626.966 21.5833 626.16 21.4348 625.429C21.995 624.104 22.8642 622.933 23.9697 622.013C25.4566 620.861 27.1276 619.968 28.9121 619.372C29.4 619.203 29.9197 619.044 30.45 618.906C32.5265 618.96 34.574 619.406 36.4848 620.221C39.3167 621.366 40.7273 623.625 42.106 626.256C43.348 628.687 43.9399 631.398 43.8243 634.125C43.1194 634.056 42.4112 634.028 41.703 634.041C39.9283 633.831 38.1798 633.44 36.4848 632.874C33.2394 631.898 30.9273 628.695 29.4848 625.81C29.4848 625.81 29.3894 625.81 29.4 625.81C30.6091 629.088 32.2 632.609 35.5409 634.21C36.8985 634.868 41.353 636.671 43.6227 636.013C42.9435 638.453 41.6762 640.689 39.9318 642.525C38.9612 643.598 37.8963 644.581 36.75 645.463C36.7027 645.364 36.6339 645.278 36.5485 645.209C35.2227 644.233 32.9742 644.244 31.4258 643.735C29.0347 642.886 26.8305 641.582 24.9349 639.895C24.9208 639.881 24.9017 639.873 24.8818 639.873C24.8619 639.873 24.8429 639.881 24.8288 639.895C24.8147 639.909 24.8068 639.928 24.8068 639.948C24.8068 639.968 24.8147 639.987 24.8288 640.001C27.7136 643.533 31.3091 645.209 35.5833 646.365C34.6924 647.075 33.7909 647.786 32.9424 648.56C30.8955 650.438 30.1106 652.697 29.0712 655.168C28.4349 655.168 27.7349 655.221 27.1515 655.168C26.0909 655.062 25.0303 655.009 23.9061 654.85C22.1374 654.614 20.4425 653.991 18.9424 653.025C17.3537 651.797 15.928 650.372 14.7 648.783C14.6045 648.677 14.4242 648.783 14.4985 648.932C15.7924 650.925 16.7682 652.951 18.6242 654.478C20.1093 655.607 21.8581 656.337 23.7046 656.6C25.1733 656.9 26.671 657.035 28.1697 657.003C26.9736 659.028 25.4256 660.824 23.5985 662.306C21.4948 664.034 19.821 666.227 18.7091 668.712C18.3591 669.465 18.0197 670.239 17.6485 670.971C17.5689 670.926 17.4831 670.894 17.3939 670.875C15.5273 670.504 13.5864 670.557 11.8046 669.815C9.51003 668.995 7.53453 667.469 6.16212 665.456C6.16212 665.456 6.03485 665.456 6.06667 665.509C8.05 669.868 11.9849 671.947 16.5136 672.541L16.4394 672.625C15.2468 673.566 14.1067 674.572 13.0242 675.638C11.147 677.865 10.1076 680.538 7.97575 682.606C7.09544 683.391 5.67424 684.844 4.36969 684.685H4.38031Z" fill="url(#paint2_linear_732_1359)"/>
</g>
<g clip-path="url(#clip2_732_1359)">
<path d="M344.858 759.307C343.15 755.191 341.617 750.901 339.696 746.862C338.648 744.621 337.562 742.515 336.708 740.196C336.406 738.976 335.843 737.836 335.058 736.853C332.866 734.805 328.558 737.297 326.287 738.051C321.786 739.539 317.342 741.123 312.859 742.631C306.262 744.853 299.645 747.094 293.047 749.413C289.244 750.624 285.447 751.874 281.657 753.162C264.697 758.824 248.164 765.606 231.476 771.983C223.754 774.737 216.211 777.963 208.889 781.645C206.192 783.075 203.456 784.176 202.214 787.094C200.972 790.012 201.69 793.104 202.214 796.215C203.667 803.447 206.581 810.311 210.777 816.389C214.973 822.468 220.364 827.635 226.625 831.577C240.86 840.468 256.924 846.049 273.623 847.905C289.648 850.108 305.954 846.969 320 838.978C332.73 831.673 341.772 818.282 346.527 804.698C351.66 789.887 351.065 773.704 344.858 759.307ZM233.688 775.036C249.93 768.64 265.978 761.819 282.472 756.08L288.409 753.993C293.396 752.273 298.383 750.553 303.39 748.949C309.638 747.017 315.887 744.93 322.154 742.998C326.559 746.862 328.325 753.278 329.8 758.65C331.566 765.085 333.933 771.423 333.875 778.186C333.758 791.249 328.597 805.065 318.351 813.587C308.105 822.108 292.989 825.586 279.774 824.987C267.045 824.427 255.111 818.166 245.195 810.533C239.113 806.145 233.667 800.944 229.012 795.075C225.596 790.476 222.259 785.819 219.076 781.065C223.889 778.901 228.798 776.968 233.688 775.036ZM282.976 845.335C275.165 845.015 267.407 843.895 259.826 841.992C251.991 840.342 244.4 837.699 237.239 834.127C223.966 827.19 213.003 817.471 207.899 803.055C206.89 800.008 206.188 796.869 205.804 793.683C205.359 792.045 205.468 790.307 206.114 788.736C208.055 792.195 210.48 795.345 212.828 798.649C215.853 803.318 219.33 807.68 223.21 811.674C227.784 815.765 232.684 819.481 237.86 822.785C242.576 825.973 247.252 829.239 252.22 832.06C261.65 837.393 272.129 841.838 282.996 843.074C289.221 843.747 295.503 843.715 301.721 842.978L302.905 842.842C296.416 844.621 289.705 845.461 282.976 845.335ZM345.653 793.413C343.259 807.698 336.192 820.796 325.55 830.669C322.46 833.457 319.039 835.858 315.363 837.818C303.972 840.214 292.581 841.799 280.939 839.499C270.634 837.346 260.785 833.423 251.832 827.905C242.517 822.359 232.272 816.311 224.549 808.582C218.067 802.128 213.663 793.703 207.414 787.152C208.873 786.089 210.441 785.182 212.091 784.447C214.128 783.365 216.205 782.36 218.32 781.394C223.97 792.532 231.856 802.397 241.489 810.379C251.638 818.823 263.94 826.089 277.349 827.384C291.417 828.736 307.31 825.355 318.758 816.814C329.78 808.582 335.33 795.403 336.553 782.031C337.329 773.741 334.981 766.36 332.672 758.515C331.022 752.872 329.334 746.341 325.065 742.012C327.471 741.104 331.876 739.114 333.06 740.563C333.742 741.943 334.288 743.386 334.69 744.872C335.582 746.804 336.63 748.582 337.406 750.515C343.034 764.524 348.195 778.089 345.653 793.413Z" fill="url(#paint3_linear_732_1359)"/>
<path d="M256.004 774.592C254.908 775.6 253.907 776.706 253.015 777.896C252.147 778.801 251.486 779.882 251.075 781.065C250.59 782.572 252.258 783.403 253.462 782.901C254.038 782.57 254.519 782.098 254.859 781.529C255.304 781.053 255.718 780.549 256.101 780.022C256.552 779.319 256.948 778.583 257.284 777.819C257.66 777.219 257.947 776.568 258.138 775.886C258.213 775.615 258.197 775.328 258.093 775.066C257.988 774.805 257.802 774.585 257.56 774.438C257.319 774.292 257.037 774.228 256.756 774.256C256.475 774.283 256.211 774.401 256.004 774.592Z" fill="url(#paint4_linear_732_1359)"/>
<path d="M265.26 780.215C264.425 782.263 262.97 783.944 262.233 786.012C261.767 787.345 261.767 790.166 263.96 789.877C264.386 789.825 264.783 789.633 265.089 789.333C265.394 789.032 265.591 788.639 265.648 788.215C265.659 788.144 265.659 788.073 265.648 788.002C265.648 787.712 265.648 787.403 265.803 787.113C265.958 786.823 265.997 786.147 266.133 785.683C266.783 783.987 267.27 782.234 267.588 780.447C267.763 779.075 265.725 779.075 265.26 780.215Z" fill="url(#paint5_linear_732_1359)"/>
<path d="M281.404 789.452C281.304 788.573 281.258 787.689 281.269 786.804L280.919 783.21C280.908 782.909 280.79 782.622 280.586 782.4C280.383 782.177 280.106 782.034 279.807 781.994C279.507 781.955 279.203 782.023 278.949 782.185C278.694 782.347 278.505 782.594 278.416 782.882C278.116 783.699 277.882 784.539 277.717 785.394C277.601 786.244 277.543 787.094 277.465 787.944C277.291 789.529 277.368 791.056 278.959 791.809C279.294 791.975 279.671 792.033 280.04 791.976C280.409 791.919 280.751 791.75 281.019 791.492C281.287 791.233 281.468 790.898 281.537 790.533C281.606 790.167 281.56 789.79 281.404 789.452Z" fill="url(#paint6_linear_732_1359)"/>
<path d="M297.394 785.683C296.54 784.736 295.764 783.751 294.91 782.804C294.493 782.344 294.017 781.941 293.493 781.606C292.931 781.278 292.252 781.239 291.689 780.93C291.456 780.787 291.178 780.735 290.908 780.784C290.639 780.834 290.398 780.981 290.231 781.197C290.064 781.414 289.984 781.684 290.006 781.956C290.028 782.228 290.151 782.482 290.35 782.669C290.738 783.055 291.281 783.287 291.65 783.693C292.037 784.149 292.369 784.648 292.64 785.181C293.227 786.296 293.923 787.351 294.716 788.331C296.288 790.147 298.946 787.48 297.394 785.683Z" fill="url(#paint7_linear_732_1359)"/>
<path d="M308.455 773.819C307.039 773.294 305.541 773.026 304.03 773.027C302.614 772.911 301.294 772.64 299.916 772.408C299.592 772.321 299.246 772.366 298.955 772.533C298.664 772.699 298.452 772.974 298.364 773.297C298.277 773.62 298.321 773.964 298.489 774.254C298.656 774.544 298.932 774.756 299.257 774.843C302.226 775.635 304.865 777.413 308.066 776.775C308.379 776.697 308.661 776.526 308.875 776.286C309.09 776.046 309.227 775.747 309.269 775.428C309.31 775.11 309.255 774.786 309.11 774.499C308.965 774.212 308.736 773.975 308.455 773.819Z" fill="url(#paint8_linear_732_1359)"/>
<path d="M309.89 760.911C308.613 760.974 307.351 761.221 306.145 761.645C304.349 762.11 302.529 762.478 300.693 762.746C300.506 762.796 300.342 762.905 300.224 763.057C300.107 763.209 300.043 763.395 300.043 763.587C300.043 763.779 300.107 763.965 300.224 764.117C300.342 764.269 300.506 764.378 300.693 764.428C302.827 764.733 304.99 764.779 307.135 764.563C308.532 764.428 310.376 764.389 311.016 762.92C311.129 762.719 311.188 762.492 311.188 762.262C311.188 762.031 311.128 761.804 311.016 761.603C310.903 761.402 310.74 761.232 310.543 761.111C310.346 760.99 310.122 760.921 309.89 760.911Z" fill="url(#paint9_linear_732_1359)"/>
<path d="M306.107 753.568C304.723 753.754 303.416 754.308 302.323 755.171C301.833 755.486 301.366 755.835 300.925 756.215C300.764 756.348 300.632 756.512 300.537 756.698C300.537 756.698 300.305 757.355 300.44 757.046C300.367 757.175 300.347 757.327 300.383 757.471C300.419 757.614 300.509 757.739 300.634 757.819C301.546 758.203 302.567 758.245 303.506 757.935C304.853 757.607 306.156 757.12 307.387 756.485C309.037 755.5 307.795 753.336 306.107 753.568Z" fill="url(#paint10_linear_732_1359)"/>
<path d="M251.948 788.504C250.861 790.244 249.561 791.789 248.416 793.471C247.271 795.152 247.31 796.678 249.037 797.529C250.357 798.186 252.084 796.833 251.249 795.403L251.599 794.804L252.491 793.277C253.132 792.195 253.811 791.132 254.432 790.031C254.532 789.869 254.6 789.688 254.631 789.5C254.661 789.311 254.654 789.119 254.61 788.933C254.566 788.747 254.485 788.572 254.373 788.417C254.261 788.263 254.119 788.131 253.956 788.031C253.793 787.931 253.612 787.864 253.423 787.833C253.234 787.803 253.04 787.81 252.854 787.854C252.667 787.897 252.491 787.978 252.336 788.089C252.18 788.201 252.049 788.342 251.948 788.504Z" fill="url(#paint11_linear_732_1359)"/>
<path d="M266.152 796.022C264.872 798.34 262.95 802.476 264.658 804.968C264.837 805.243 265.099 805.454 265.406 805.57C265.714 805.687 266.05 805.704 266.367 805.618C266.685 805.532 266.966 805.348 267.172 805.092C267.377 804.836 267.496 804.522 267.511 804.195C267.632 803.1 267.86 802.02 268.19 800.968C268.358 799.702 268.664 798.458 269.102 797.258C269.8 795.558 267.025 794.456 266.152 796.022Z" fill="url(#paint12_linear_732_1359)"/>
<path d="M284.994 804.273C284.644 801.994 283.991 799.772 283.054 797.664C282.297 796.157 280.085 797.258 280.415 798.766C280.997 801.355 279.871 804.872 283.228 805.935C283.465 806.013 283.719 806.027 283.962 805.973C284.206 805.919 284.43 805.801 284.611 805.63C284.793 805.46 284.924 805.243 284.991 805.004C285.059 804.765 285.06 804.512 284.994 804.273Z" fill="url(#paint13_linear_732_1359)"/>
<path d="M301.372 800.872C301.022 799.403 299.528 798.514 298.403 797.664C297.277 796.814 296.327 796.099 295.24 795.403C295.001 795.266 294.72 795.22 294.45 795.272C294.179 795.324 293.937 795.472 293.767 795.688C293.597 795.905 293.511 796.175 293.525 796.449C293.539 796.723 293.652 796.983 293.843 797.181C295.783 799.113 296.579 802.592 299.8 802.978C300.057 802.981 300.311 802.922 300.541 802.809C300.771 802.695 300.971 802.528 301.124 802.323C301.277 802.118 301.38 801.879 301.423 801.627C301.466 801.375 301.448 801.116 301.372 800.872Z" fill="url(#paint14_linear_732_1359)"/>
<path d="M314.567 785.297C312.295 785.532 310 785.388 307.775 784.872C306.145 784.582 305.427 787.036 307.077 787.365C310.046 787.964 312.898 789.954 315.945 788.543C317.905 787.616 316.41 784.988 314.567 785.297Z" fill="url(#paint15_linear_732_1359)"/>
</g>
<path d="M239.141 23.1728C238.218 16.3319 234.05 9.60768 228.747 5.20616C223.444 0.804646 216.603 -0.658994 209.762 0.263733C205.915 0.684143 202.241 2.08661 199.092 4.33646C196.32 6.23187 193.847 8.53045 191.753 11.1562C189.527 14.2015 187.98 17.6885 187.215 21.3823C186.45 25.0762 186.486 28.891 187.32 32.5698C190.173 45.2016 204.968 52.0531 217.144 50.9607C220.424 50.7401 223.621 49.8331 226.527 48.2984C229.434 46.7636 231.986 44.6354 234.018 42.0516C236.114 39.4128 237.69 36.4005 238.664 33.1743C239.537 29.9132 239.7 26.5024 239.141 23.1728ZM235.079 36.9607C232.141 42.444 227.4 46.8455 221.291 48.4152C209.115 51.544 193.153 46.0289 189.176 33.1001C187.161 26.5562 188.942 18.4743 192.824 12.9486C197.162 6.82888 203.324 3.63647 210.473 1.89708C215.067 1.26225 219.746 2.03902 223.889 4.12435C229.192 7.0092 233.223 12.3865 235.62 17.7956C236.96 20.8349 237.607 24.1346 237.513 27.455C237.42 30.7754 236.588 34.0334 235.079 36.9925V36.9607Z" fill="url(#paint16_linear_732_1359)"/>
<path d="M216.37 14.784C215.479 13.5218 214.652 12.2279 213.771 10.9658C213.326 10.34 212.647 9.72486 211.883 10.2764C211.023 11.2009 210.545 12.4177 210.547 13.6809C210.451 14.3381 210.553 15.0089 210.84 15.6078C211.128 16.2066 211.587 16.7063 212.159 17.043C212.236 17.0881 212.326 17.1064 212.414 17.0951C212.503 17.0837 212.585 17.0434 212.648 16.9804C212.711 16.9173 212.751 16.8351 212.763 16.7466C212.774 16.6582 212.756 16.5685 212.711 16.4915C212.316 15.6018 212.076 14.6513 212 13.6809C211.989 13.1154 212.076 12.5523 212.255 12.0158L212.446 11.4006C212.689 11.1249 212.88 11.1779 212.997 11.5809C213.502 12.2403 213.936 12.9513 214.291 13.7021C214.676 14.3523 215.171 14.9302 215.755 15.4097C216.115 15.6536 216.614 15.134 216.37 14.784Z" fill="url(#paint17_linear_732_1359)"/>
<path d="M229.33 12.4183C228.27 11.2729 225.788 11.1668 224.292 10.9653C222.64 10.7961 220.978 10.743 219.318 10.8062C219.689 10.2653 220.273 9.68199 220.517 9.32138C221.12 8.50815 221.635 7.63362 222.055 6.7123C222.235 6.24563 221.789 5.88502 221.386 5.84259C220.458 5.91853 219.567 6.24472 218.809 6.78652C217.749 7.36985 216.688 8.23955 215.564 8.90773C215.564 6.85015 215.436 4.18804 213.899 2.91531C213.802 2.82509 213.675 2.7749 213.543 2.7749C213.411 2.7749 213.284 2.82509 213.188 2.91531C211.905 3.92289 211.395 6.27745 210.897 8.00624C209.606 7.07641 208.173 6.36021 206.655 5.88503C206.5 5.84566 206.336 5.86789 206.198 5.94704C206.059 6.0262 205.957 6.15608 205.912 6.30926C205.583 7.99563 207.662 9.67138 208.797 11.0077C208.405 10.9123 208.023 10.8062 207.62 10.7426C206.59 10.656 205.556 10.6277 204.523 10.6578C202.518 10.5305 200.535 10.0002 198.53 9.79867C198.011 9.74564 197.915 10.4668 198.286 10.7108C199.602 11.5593 200.588 12.832 202.041 13.4684C203.333 13.9828 204.683 14.3389 206.061 14.529C205.711 14.6774 205.371 14.8365 205 15.0062C203.819 15.6092 202.718 16.3574 201.723 17.2335C200.654 18.1252 199.706 19.152 198.902 20.288C198.252 21.0739 197.847 22.0324 197.735 23.0456C197.738 23.1549 197.769 23.2616 197.825 23.3555C197.881 23.4494 197.96 23.5273 198.055 23.5817C198.15 23.636 198.257 23.665 198.366 23.6659C198.475 23.6667 198.583 23.6394 198.679 23.5865C200.344 22.7805 201.861 21.6881 203.526 20.8608C204.852 20.2006 206.22 19.6267 207.62 19.1426C206.304 20.7308 205.255 22.5217 204.512 24.4456C203.738 26.2911 201.924 30.4168 203.452 32.3259C204.979 34.235 206.973 30.2577 207.503 29.3562C208.564 27.6062 209.624 25.8774 210.685 24.138C211.39 22.7762 212.184 21.4618 213.061 20.2032C213.061 20.6805 212.986 21.2108 213.061 21.5926C213.177 22.4727 213.35 23.3443 213.58 24.2017C213.761 24.9547 213.941 25.7077 214.142 26.4502C214.535 27.9668 214.97 30.5335 216.264 31.5623C218.279 33.1214 218.703 29.1335 218.841 28.0729C219.037 26.2787 219.037 24.4686 218.841 22.6744C218.684 21.5381 218.432 20.417 218.088 19.3229C220.24 19.8772 222.296 20.7533 224.186 21.9214C225.297 22.5495 226.265 23.4019 227.029 24.4244C227.358 24.8911 227.432 25.3259 228.036 25.4108C228.142 25.4374 228.253 25.4362 228.359 25.4075C228.464 25.3787 228.56 25.3233 228.638 25.2466C228.716 25.1699 228.773 25.0745 228.803 24.9695C228.833 24.8645 228.836 24.7535 228.811 24.6471C228.285 22.4053 227.103 20.3709 225.417 18.8032C224.661 18.0128 223.825 17.302 222.924 16.682C222.33 16.279 221.089 15.9395 220.358 15.4729C221.927 14.5714 224.356 14.4653 225.979 14.2532C227.039 14.1047 228.885 14.2532 229.447 13.1926C229.508 13.0669 229.53 12.9256 229.509 12.7873C229.488 12.649 229.426 12.5203 229.33 12.4183ZM225.162 13.129C224.176 13.2668 223.2 13.4153 222.235 13.6274C221.029 13.8079 219.884 14.2733 218.894 14.985C218.794 15.0822 218.729 15.2102 218.709 15.3486C218.69 15.487 218.718 15.6278 218.788 15.7487C219.036 16.0959 219.378 16.3646 219.774 16.5229C221.042 17.0863 222.238 17.7984 223.338 18.6441C224.487 19.5993 225.494 20.7135 226.329 21.9532C225.668 21.423 224.958 20.9577 224.208 20.5638C222.103 19.3683 219.828 18.4993 217.462 17.9865C217.361 17.9616 217.255 17.9631 217.155 17.9911C217.055 18.019 216.963 18.0724 216.89 18.146C216.816 18.2196 216.763 18.311 216.735 18.4112C216.707 18.5115 216.705 18.6173 216.73 18.7183C216.868 19.7789 217.345 20.7017 217.494 21.7305C217.686 23.1893 217.757 24.6615 217.706 26.132C217.665 27.1866 217.541 28.2363 217.335 29.2714L217.186 30.0032C217.186 30.7103 217.07 30.8481 216.836 30.4168C216.391 30.1623 216.083 28.9002 215.924 28.4547C215.5 27.2774 215.182 26.0577 214.864 24.8381C214.487 23.6857 214.224 22.4992 214.079 21.2956C214.015 20.4153 214.333 19.5987 213.835 18.8138C213.755 18.6797 213.626 18.5823 213.475 18.5426C213.325 18.5029 213.164 18.5241 213.029 18.6017C211.586 19.6623 210.706 21.7835 209.752 23.2365C208.203 25.6547 206.283 28.0623 204.936 30.5865C204.661 31.1062 204.936 31.6471 204.565 30.9577C204.194 30.2683 204.65 29.4305 204.777 28.7623C205.034 27.5027 205.388 26.2651 205.838 25.0608C206.782 22.6002 208.065 20.0017 210.197 18.3683C210.674 17.9971 210.441 17.0956 209.752 17.3077C207.648 17.9447 205.59 18.7206 203.589 19.6305C202.136 20.2987 200.779 21.1153 199.347 21.8578C199.771 21.1596 200.269 20.5089 200.832 19.9168C201.797 18.8366 202.89 17.8784 204.088 17.0638C205.084 16.3649 206.193 15.8412 207.365 15.5153C208.065 15.3562 208.542 15.3456 208.999 14.7411C209.047 14.6552 209.076 14.5595 209.083 14.4609C209.09 14.3624 209.074 14.2636 209.037 14.1719C209.001 14.0802 208.944 13.9979 208.871 13.9312C208.798 13.8645 208.711 13.815 208.617 13.7865C206.686 13.3941 204.65 13.4153 202.783 12.7259C201.733 12.3268 200.784 11.7002 200.005 10.8911C202.965 11.4501 205.978 11.6777 208.988 11.5699C209.034 11.6376 209.098 11.6907 209.173 11.7227C209.249 11.7547 209.332 11.7642 209.412 11.7502H209.592C209.688 11.7471 209.781 11.7196 209.863 11.6705C209.945 11.6213 210.013 11.5521 210.061 11.4692C210.109 11.3864 210.135 11.2928 210.136 11.1972C210.138 11.1016 210.115 11.0072 210.07 10.9229C209.614 10.2547 209.009 9.71379 208.5 9.07743C208.019 8.54524 207.582 7.97411 207.195 7.36987C208.471 7.98174 209.698 8.69091 210.865 9.49108C210.953 9.53969 211.051 9.56806 211.152 9.57417C211.252 9.58028 211.353 9.56396 211.446 9.52639C211.54 9.48883 211.623 9.43097 211.692 9.35698C211.76 9.283 211.811 9.19477 211.841 9.09866C212.117 8.20775 212.392 7.31685 212.647 6.41533C212.742 6.06533 212.827 5.69412 212.933 5.35472C213.039 5.01533 213.029 3.83806 213.623 4.29412C214.217 4.75018 214.079 6.05472 214.164 6.74412C214.275 7.77262 214.296 8.80886 214.227 9.84107C214.227 9.9381 214.25 10.0338 214.293 10.1209C214.335 10.208 214.398 10.2841 214.474 10.3435C214.551 10.4028 214.64 10.4438 214.736 10.4634C214.831 10.4829 214.929 10.4805 215.023 10.4562C216.013 9.97643 216.961 9.41223 217.855 8.76988C218.364 8.47291 219.18 7.88955 219.976 7.51834C219.032 8.81228 217.695 9.98955 217.515 11.4638C217.518 11.6542 217.595 11.8361 217.729 11.9708C217.864 12.1054 218.046 12.1823 218.236 12.185C219.87 12.185 221.418 12.0683 223.115 12.238C224.016 12.3213 224.912 12.4523 225.799 12.6305C226.159 12.7047 226.785 12.7578 227.347 12.8744C226.552 13.0653 225.438 13.0971 225.162 13.129Z" fill="url(#paint18_linear_732_1359)"/>
<path d="M94.5449 804.552C99.4614 802.847 103.869 799.931 107.363 796.074C110.856 792.217 113.322 787.542 114.534 782.482C115.594 777.462 115.304 772.25 113.693 767.379C112.859 764.589 111.411 762.022 109.456 759.865C105.545 753.705 100.31 748.495 94.1315 744.614C89.7912 741.78 85.5099 738.709 81.2877 735.757C77.0655 732.804 73.4486 729.453 69.1525 726.825C61.8596 722.396 51.2597 721.761 44.4245 727.371C36.7477 733.675 35.3157 744.496 36.3639 753.871C37.5301 764.205 41.8557 773.609 47.1704 782.452C56.5597 798.145 75.7516 810.959 94.5449 804.552ZM51.7321 784.829C49.0653 781.009 46.7103 776.98 44.6902 772.782C42.5776 768.801 40.9896 764.564 39.966 760.175C38.0616 751.863 37.1315 740.584 42.4019 733.247C48.0266 725.452 58.6413 724.153 66.8347 728.7C70.4415 730.963 73.8938 733.464 77.1688 736.185C80.6086 738.739 84.2698 740.983 87.7834 743.463C91.297 745.943 95.3569 748.217 98.841 751.022C100.874 752.674 102.734 754.529 104.392 756.558C105.594 758.012 106.703 759.541 107.714 761.134C110.896 765.98 112.735 771.584 113.043 777.374C113.002 778.304 112.904 779.231 112.748 780.149C111.183 788.815 104.953 797.304 96.6855 800.714C88.3529 804.081 79.0299 804.033 70.7322 800.581C63.0259 797.688 56.6925 791.369 51.7617 784.829H51.7321Z" fill="url(#paint19_linear_732_1359)"/>
<path d="M107.832 768.279C105.297 763.74 102.092 759.609 98.3243 756.026C94.557 752.097 90.3799 748.583 85.8643 745.544C81.5092 742.843 77.0065 740.746 72.9909 737.469C68.6506 733.911 64.7532 730.516 59.1875 729.172C58.6413 729.039 58.4493 729.896 58.9513 730.102C61.6578 731.084 64.2085 732.452 66.5247 734.162C68.6506 735.86 70.555 737.794 72.6809 739.492C76.3559 742.202 80.2752 744.564 84.388 746.548C88.684 749.094 92.6506 752.158 96.1984 755.672C100.52 759.398 104.275 763.735 107.344 768.545C107.551 768.767 107.965 768.53 107.832 768.279Z" fill="url(#paint20_linear_732_1359)"/>
<path d="M92.921 799.134C93.5115 798.898 93.231 797.909 92.611 798.057C84.8014 799.976 75.5302 796.846 68.7982 792.963C61.9514 789.001 56.1469 783.465 51.8651 776.813C47.6281 770.096 43.9816 762.817 42.7858 754.904C42.173 751.021 42.173 747.066 42.7858 743.183C43.8525 738.501 46.45 734.308 50.1673 731.269C50.1673 731.195 50.1673 731.062 50.0492 731.136C46.7764 733.34 44.176 736.405 42.5348 739.994C40.9109 743.788 40.9404 748.217 41.0585 752.276C41.4424 761.208 45.1183 769.653 49.6801 777.211C54.127 784.543 60.4724 790.536 68.0453 794.558C74.9692 798.293 85.0819 802.235 92.921 799.134Z" fill="url(#paint21_linear_732_1359)"/>
<path d="M88.3001 787.708C92.729 785.656 94.663 781.168 95.6817 776.695C96.907 771.395 94.3235 765.637 91.5628 761.223C88.7776 756.611 84.4541 753.129 79.3538 751.391C78.9109 751.214 78.4827 751.051 78.0251 750.919C76.0093 750.255 73.8729 750.039 71.765 750.286C69.657 750.533 67.6284 751.237 65.8207 752.349C64.013 753.46 62.4697 754.953 61.2985 756.723C60.1273 758.493 59.3565 760.498 59.0398 762.596C58.5759 767.405 59.9528 772.211 62.893 776.045C65.8796 780.615 69.9329 784.389 74.7034 787.044C76.7772 788.16 79.0742 788.799 81.4266 788.914C83.779 789.029 86.1274 788.617 88.3001 787.708ZM76.8293 785.302C72.9114 783.416 69.4926 780.634 66.8495 777.182C64.0445 773.875 61.3133 769.697 61.1657 765.224C61.0812 763.161 61.5121 761.109 62.4193 759.254C63.3266 757.399 64.6818 755.799 66.3624 754.599C68.0429 753.399 69.996 752.637 72.0451 752.381C74.0942 752.125 76.1748 752.383 78.0989 753.133C82.2666 754.733 85.9668 757.352 88.8611 760.751C90.2427 762.382 91.4178 764.176 92.36 766.095C93.0491 767.953 93.5439 769.878 93.8363 771.838C94.0383 774.102 93.7234 776.383 92.9153 778.509C92.1072 780.634 90.8269 782.548 89.1712 784.106C85.7609 786.999 80.8448 786.955 76.8293 785.302Z" fill="url(#paint22_linear_732_1359)"/>
<defs>
<linearGradient id="paint0_linear_732_1359" x1="213.101" y1="64.1334" x2="282.199" y2="64.1334" gradientUnits="userSpaceOnUse">
<stop stop-color="#FF9600"/>
<stop offset="1" stop-color="#FF007B"/>
</linearGradient>
<linearGradient id="paint1_linear_732_1359" x1="263.03" y1="605.691" x2="349.883" y2="605.691" gradientUnits="userSpaceOnUse">
<stop stop-color="#FF9600"/>
<stop offset="1" stop-color="#FF007B"/>
</linearGradient>
<linearGradient id="paint2_linear_732_1359" x1="-1.85841e-05" y1="637.159" x2="60.9955" y2="637.159" gradientUnits="userSpaceOnUse">
<stop stop-color="#FF9600"/>
<stop offset="1" stop-color="#FF007B"/>
</linearGradient>
<linearGradient id="paint3_linear_732_1359" x1="201.515" y1="792.292" x2="350" y2="792.292" gradientUnits="userSpaceOnUse">
<stop stop-color="#FF9600"/>
<stop offset="1" stop-color="#FF007B"/>
</linearGradient>
<linearGradient id="paint4_linear_732_1359" x1="251.017" y1="778.63" x2="258.196" y2="778.63" gradientUnits="userSpaceOnUse">
<stop stop-color="#FF9600"/>
<stop offset="1" stop-color="#FF007B"/>
</linearGradient>
<linearGradient id="paint5_linear_732_1359" x1="261.98" y1="784.698" x2="267.627" y2="784.698" gradientUnits="userSpaceOnUse">
<stop stop-color="#FF9600"/>
<stop offset="1" stop-color="#FF007B"/>
</linearGradient>
<linearGradient id="paint6_linear_732_1359" x1="277.388" y1="787.036" x2="281.618" y2="787.036" gradientUnits="userSpaceOnUse">
<stop stop-color="#FF9600"/>
<stop offset="1" stop-color="#FF007B"/>
</linearGradient>
<linearGradient id="paint7_linear_732_1359" x1="289.962" y1="784.872" x2="297.84" y2="784.872" gradientUnits="userSpaceOnUse">
<stop stop-color="#FF9600"/>
<stop offset="1" stop-color="#FF007B"/>
</linearGradient>
<linearGradient id="paint8_linear_732_1359" x1="298.345" y1="774.631" x2="309.231" y2="774.631" gradientUnits="userSpaceOnUse">
<stop stop-color="#FF9600"/>
<stop offset="1" stop-color="#FF007B"/>
</linearGradient>
<linearGradient id="paint9_linear_732_1359" x1="300.072" y1="762.804" x2="311.191" y2="762.804" gradientUnits="userSpaceOnUse">
<stop stop-color="#FF9600"/>
<stop offset="1" stop-color="#FF007B"/>
</linearGradient>
<linearGradient id="paint10_linear_732_1359" x1="300.382" y1="755.848" x2="308.144" y2="755.848" gradientUnits="userSpaceOnUse">
<stop stop-color="#FF9600"/>
<stop offset="1" stop-color="#FF007B"/>
</linearGradient>
<linearGradient id="paint11_linear_732_1359" x1="247.718" y1="792.756" x2="254.684" y2="792.756" gradientUnits="userSpaceOnUse">
<stop stop-color="#FF9600"/>
<stop offset="1" stop-color="#FF007B"/>
</linearGradient>
<linearGradient id="paint12_linear_732_1359" x1="263.979" y1="800.466" x2="269.218" y2="800.466" gradientUnits="userSpaceOnUse">
<stop stop-color="#FF9600"/>
<stop offset="1" stop-color="#FF007B"/>
</linearGradient>
<linearGradient id="paint13_linear_732_1359" x1="280.473" y1="801.471" x2="285.014" y2="801.471" gradientUnits="userSpaceOnUse">
<stop stop-color="#FF9600"/>
<stop offset="1" stop-color="#FF007B"/>
</linearGradient>
<linearGradient id="paint14_linear_732_1359" x1="293.513" y1="799.055" x2="301.411" y2="799.055" gradientUnits="userSpaceOnUse">
<stop stop-color="#FF9600"/>
<stop offset="1" stop-color="#FF007B"/>
</linearGradient>
<linearGradient id="paint15_linear_732_1359" x1="306.145" y1="786.94" x2="316.876" y2="786.94" gradientUnits="userSpaceOnUse">
<stop stop-color="#FF9600"/>
<stop offset="1" stop-color="#FF007B"/>
</linearGradient>
<linearGradient id="paint16_linear_732_1359" x1="186.641" y1="25.538" x2="239.449" y2="25.538" gradientUnits="userSpaceOnUse">
<stop stop-color="#FF9600"/>
<stop offset="1" stop-color="#FF007B"/>
</linearGradient>
<linearGradient id="paint17_linear_732_1359" x1="210.547" y1="13.5749" x2="216.433" y2="13.5749" gradientUnits="userSpaceOnUse">
<stop stop-color="#FF9600"/>
<stop offset="1" stop-color="#FF007B"/>
</linearGradient>
<linearGradient id="paint18_linear_732_1359" x1="197.735" y1="17.8274" x2="229.511" y2="17.8274" gradientUnits="userSpaceOnUse">
<stop stop-color="#FF9600"/>
<stop offset="1" stop-color="#FF007B"/>
</linearGradient>
<linearGradient id="paint19_linear_732_1359" x1="36.0686" y1="764.766" x2="115.184" y2="764.766" gradientUnits="userSpaceOnUse">
<stop stop-color="#FF9600"/>
<stop offset="1" stop-color="#FF007B"/>
</linearGradient>
<linearGradient id="paint20_linear_732_1359" x1="58.656" y1="748.896" x2="107.861" y2="748.896" gradientUnits="userSpaceOnUse">
<stop stop-color="#FF9600"/>
<stop offset="1" stop-color="#FF007B"/>
</linearGradient>
<linearGradient id="paint21_linear_732_1359" x1="40.9552" y1="765.681" x2="93.2458" y2="765.681" gradientUnits="userSpaceOnUse">
<stop stop-color="#FF9600"/>
<stop offset="1" stop-color="#FF007B"/>
</linearGradient>
<linearGradient id="paint22_linear_732_1359" x1="58.907" y1="769.579" x2="96.0064" y2="769.579" gradientUnits="userSpaceOnUse">
<stop stop-color="#FF9600"/>
<stop offset="1" stop-color="#FF007B"/>
</linearGradient>
<clipPath id="clip0_732_1359">
<rect width="86.8424" height="68.0379" fill="white" transform="translate(263.03 571.667)"/>
</clipPath>
<clipPath id="clip1_732_1359">
<rect width="60.9955" height="99.1561" fill="white" transform="translate(0 587.576)"/>
</clipPath>
<clipPath id="clip2_732_1359">
<rect width="148.485" height="112.424" fill="white" transform="translate(201.515 736.061)"/>
</clipPath>
</defs>
</svg>
